<mxfile host="app.diagrams.net" modified="2021-05-22T16:53:34.532Z" agent="5.0 (Macintosh; Intel Mac OS X 10_15_6) AppleWebKit/605.1.15 (KHTML, like Gecko) Version/14.0.3 Safari/605.1.15" etag="gO3e2ZtN_Cawf2Zq-w-O" version="14.7.0" type="github" pages="11">
  <diagram id="kgpKYQtTHZ0yAKxKKP6v" name="A1">
    <mxGraphModel dx="2112" dy="560" grid="1" gridSize="10" guides="1" tooltips="1" connect="1" arrows="1" fold="1" page="1" pageScale="1" pageWidth="1169" pageHeight="827" math="0" shadow="0">
      <root>
        <mxCell id="0" />
        <mxCell id="1" parent="0" />
        <mxCell id="3nuBFxr9cyL0pnOWT2aG-1" value=":FileIO" style="shape=umlLifeline;perimeter=lifelinePerimeter;container=1;collapsible=0;recursiveResize=0;rounded=0;shadow=0;strokeWidth=1;" parent="1" vertex="1">
          <mxGeometry x="-790" y="40" width="100" height="340" as="geometry" />
        </mxCell>
        <mxCell id="3nuBFxr9cyL0pnOWT2aG-2" value="" style="points=[];perimeter=orthogonalPerimeter;rounded=0;shadow=0;strokeWidth=1;" parent="3nuBFxr9cyL0pnOWT2aG-1" vertex="1">
          <mxGeometry x="45" y="160" width="10" height="40" as="geometry" />
        </mxCell>
        <mxCell id="3nuBFxr9cyL0pnOWT2aG-5" value=":DataHanding" style="shape=umlLifeline;perimeter=lifelinePerimeter;container=1;collapsible=0;recursiveResize=0;rounded=0;shadow=0;strokeWidth=1;" parent="1" vertex="1">
          <mxGeometry x="-650" y="45" width="100" height="340" as="geometry" />
        </mxCell>
        <mxCell id="xn-wZ9Q0sTG2pgYCqVmi-4" value="" style="html=1;points=[];perimeter=orthogonalPerimeter;" parent="3nuBFxr9cyL0pnOWT2aG-5" vertex="1">
          <mxGeometry x="45" y="190" width="10" height="60" as="geometry" />
        </mxCell>
        <mxCell id="0OwRSEKM_KIbYASWcK1n-1" value="" style="shape=umlLifeline;participant=umlActor;perimeter=lifelinePerimeter;whiteSpace=wrap;html=1;container=1;collapsible=0;recursiveResize=0;verticalAlign=top;spacingTop=36;outlineConnect=0;" parent="1" vertex="1">
          <mxGeometry x="-1010" y="40" width="20" height="350" as="geometry" />
        </mxCell>
        <mxCell id="0OwRSEKM_KIbYASWcK1n-3" value="" style="html=1;points=[];perimeter=orthogonalPerimeter;" parent="0OwRSEKM_KIbYASWcK1n-1" vertex="1">
          <mxGeometry x="5" y="110" width="10" height="190" as="geometry" />
        </mxCell>
        <mxCell id="3nuBFxr9cyL0pnOWT2aG-3" value="dispatch" style="verticalAlign=bottom;startArrow=oval;endArrow=block;startSize=8;shadow=0;strokeWidth=1;curved=1;" parent="1" target="0OwRSEKM_KIbYASWcK1n-1" edge="1">
          <mxGeometry relative="1" as="geometry">
            <mxPoint x="-1070" y="150" as="sourcePoint" />
            <mxPoint x="-1010" y="150" as="targetPoint" />
          </mxGeometry>
        </mxCell>
        <mxCell id="0OwRSEKM_KIbYASWcK1n-4" value="&lt;span style=&quot;color: rgb(23, 43, 77); font-size: 14px; font-style: normal; font-weight: 400; letter-spacing: normal; text-align: left; text-indent: 0px; text-transform: none; word-spacing: 0px; background-color: rgb(244, 245, 247); display: inline; float: none;&quot;&gt;Class Director&lt;/span&gt;" style="text;whiteSpace=wrap;html=1;" parent="1" vertex="1">
          <mxGeometry x="-1063" y="90" width="115" height="45" as="geometry" />
        </mxCell>
        <mxCell id="xn-wZ9Q0sTG2pgYCqVmi-1" value="A1: Load Data from File" style="text;whiteSpace=wrap;html=1;" parent="1" vertex="1">
          <mxGeometry x="-1150" y="10" width="150" height="30" as="geometry" />
        </mxCell>
        <mxCell id="qSGvZ2DZ-kiBrqZ9ExxC-1" value=":View" style="shape=umlLifeline;perimeter=lifelinePerimeter;whiteSpace=wrap;html=1;container=1;collapsible=0;recursiveResize=0;outlineConnect=0;" parent="1" vertex="1">
          <mxGeometry x="-930" y="40" width="100" height="340" as="geometry" />
        </mxCell>
        <mxCell id="qSGvZ2DZ-kiBrqZ9ExxC-4" value="" style="html=1;points=[];perimeter=orthogonalPerimeter;" parent="qSGvZ2DZ-kiBrqZ9ExxC-1" vertex="1">
          <mxGeometry x="45" y="130" width="10" height="120" as="geometry" />
        </mxCell>
        <mxCell id="qSGvZ2DZ-kiBrqZ9ExxC-3" value="load requirements" style="html=1;verticalAlign=bottom;endArrow=block;" parent="1" target="qSGvZ2DZ-kiBrqZ9ExxC-4" edge="1">
          <mxGeometry width="80" relative="1" as="geometry">
            <mxPoint x="-1000" y="170" as="sourcePoint" />
            <mxPoint x="-920" y="170" as="targetPoint" />
            <mxPoint as="offset" />
          </mxGeometry>
        </mxCell>
        <mxCell id="dJVgxZrfmY5jXAXyvbyj-2" value="upload file" style="html=1;verticalAlign=bottom;endArrow=block;" parent="1" edge="1">
          <mxGeometry x="0.0036" y="10" width="80" relative="1" as="geometry">
            <mxPoint x="-880" y="200" as="sourcePoint" />
            <mxPoint x="-740.5" y="200" as="targetPoint" />
            <mxPoint as="offset" />
          </mxGeometry>
        </mxCell>
        <mxCell id="dJVgxZrfmY5jXAXyvbyj-3" value="transfer data" style="html=1;verticalAlign=bottom;endArrow=block;entryX=0.5;entryY=0.574;entryDx=0;entryDy=0;entryPerimeter=0;" parent="1" target="3nuBFxr9cyL0pnOWT2aG-5" edge="1">
          <mxGeometry width="80" relative="1" as="geometry">
            <mxPoint x="-740" y="240" as="sourcePoint" />
            <mxPoint x="-620" y="240" as="targetPoint" />
            <mxPoint as="offset" />
          </mxGeometry>
        </mxCell>
        <mxCell id="UCksOszk-nPr8DLmraKh-1" value="return" style="html=1;verticalAlign=bottom;endArrow=open;dashed=1;endSize=8;" parent="1" target="qSGvZ2DZ-kiBrqZ9ExxC-4" edge="1">
          <mxGeometry relative="1" as="geometry">
            <mxPoint x="-600" y="290" as="sourcePoint" />
            <mxPoint x="-680" y="290" as="targetPoint" />
          </mxGeometry>
        </mxCell>
      </root>
    </mxGraphModel>
  </diagram>
  <diagram id="XmJoXBGh8yHzynLmCT7B" name="A2">
    <mxGraphModel dx="943" dy="560" grid="1" gridSize="10" guides="1" tooltips="1" connect="1" arrows="1" fold="1" page="1" pageScale="1" pageWidth="1169" pageHeight="827" math="0" shadow="0">
      <root>
        <mxCell id="HMWkxgygWb61pUtdUHci-0" />
        <mxCell id="HMWkxgygWb61pUtdUHci-1" parent="HMWkxgygWb61pUtdUHci-0" />
        <mxCell id="oHnwjUy9qmo9x3LcP_kf-0" value="A2: Populate Lists From File" style="text;whiteSpace=wrap;html=1;" parent="HMWkxgygWb61pUtdUHci-1" vertex="1">
          <mxGeometry x="10" width="180" height="30" as="geometry" />
        </mxCell>
        <mxCell id="QMht9ULuBGOXYFGUmT4a-0" value="dispatch" style="html=1;verticalAlign=bottom;startArrow=oval;startFill=1;endArrow=block;startSize=8;" parent="HMWkxgygWb61pUtdUHci-1" edge="1">
          <mxGeometry width="60" relative="1" as="geometry">
            <mxPoint x="40" y="120" as="sourcePoint" />
            <mxPoint x="130" y="120" as="targetPoint" />
          </mxGeometry>
        </mxCell>
        <mxCell id="QMht9ULuBGOXYFGUmT4a-1" value="" style="shape=umlLifeline;participant=umlActor;perimeter=lifelinePerimeter;whiteSpace=wrap;html=1;container=1;collapsible=0;recursiveResize=0;verticalAlign=top;spacingTop=36;outlineConnect=0;" parent="HMWkxgygWb61pUtdUHci-1" vertex="1">
          <mxGeometry x="130" y="40" width="20" height="300" as="geometry" />
        </mxCell>
        <mxCell id="QMht9ULuBGOXYFGUmT4a-2" value="" style="html=1;points=[];perimeter=orthogonalPerimeter;" parent="QMht9ULuBGOXYFGUmT4a-1" vertex="1">
          <mxGeometry x="5" y="70" width="10" height="200" as="geometry" />
        </mxCell>
        <mxCell id="QMht9ULuBGOXYFGUmT4a-3" value="&lt;span style=&quot;color: rgb(23, 43, 77); font-size: 14px; font-style: normal; font-weight: 400; letter-spacing: normal; text-align: left; text-indent: 0px; text-transform: none; word-spacing: 0px; background-color: rgb(244, 245, 247); display: inline; float: none;&quot;&gt;Class Director&lt;/span&gt;" style="text;whiteSpace=wrap;html=1;" parent="HMWkxgygWb61pUtdUHci-1" vertex="1">
          <mxGeometry x="85" y="70" width="110" height="30" as="geometry" />
        </mxCell>
        <mxCell id="QMht9ULuBGOXYFGUmT4a-4" value="load a file" style="html=1;verticalAlign=bottom;endArrow=block;" parent="HMWkxgygWb61pUtdUHci-1" target="QMht9ULuBGOXYFGUmT4a-9" edge="1">
          <mxGeometry width="80" relative="1" as="geometry">
            <mxPoint x="140" y="140" as="sourcePoint" />
            <mxPoint x="210" y="140" as="targetPoint" />
          </mxGeometry>
        </mxCell>
        <mxCell id="QMht9ULuBGOXYFGUmT4a-5" value=":DataHandling" style="shape=umlLifeline;perimeter=lifelinePerimeter;whiteSpace=wrap;html=1;container=1;collapsible=0;recursiveResize=0;outlineConnect=0;" parent="HMWkxgygWb61pUtdUHci-1" vertex="1">
          <mxGeometry x="520" y="40" width="100" height="300" as="geometry" />
        </mxCell>
        <mxCell id="QMht9ULuBGOXYFGUmT4a-6" value="" style="html=1;points=[];perimeter=orthogonalPerimeter;" parent="QMht9ULuBGOXYFGUmT4a-5" vertex="1">
          <mxGeometry x="45" y="200" width="10" height="60" as="geometry" />
        </mxCell>
        <mxCell id="QMht9ULuBGOXYFGUmT4a-7" value=":FileIO" style="shape=umlLifeline;perimeter=lifelinePerimeter;whiteSpace=wrap;html=1;container=1;collapsible=0;recursiveResize=0;outlineConnect=0;" parent="HMWkxgygWb61pUtdUHci-1" vertex="1">
          <mxGeometry x="350" y="40" width="100" height="300" as="geometry" />
        </mxCell>
        <mxCell id="QMht9ULuBGOXYFGUmT4a-8" value="" style="html=1;points=[];perimeter=orthogonalPerimeter;" parent="QMht9ULuBGOXYFGUmT4a-7" vertex="1">
          <mxGeometry x="45" y="150" width="10" height="50" as="geometry" />
        </mxCell>
        <mxCell id="QMht9ULuBGOXYFGUmT4a-9" value=":View" style="shape=umlLifeline;perimeter=lifelinePerimeter;whiteSpace=wrap;html=1;container=1;collapsible=0;recursiveResize=0;outlineConnect=0;" parent="HMWkxgygWb61pUtdUHci-1" vertex="1">
          <mxGeometry x="210" y="40" width="100" height="300" as="geometry" />
        </mxCell>
        <mxCell id="QMht9ULuBGOXYFGUmT4a-10" value="" style="html=1;points=[];perimeter=orthogonalPerimeter;" parent="QMht9ULuBGOXYFGUmT4a-9" vertex="1">
          <mxGeometry x="45" y="100" width="10" height="160" as="geometry" />
        </mxCell>
        <mxCell id="QMht9ULuBGOXYFGUmT4a-11" value="fill the default empty lists" style="html=1;verticalAlign=bottom;endArrow=block;" parent="HMWkxgygWb61pUtdUHci-1" target="QMht9ULuBGOXYFGUmT4a-7" edge="1">
          <mxGeometry width="80" relative="1" as="geometry">
            <mxPoint x="260" y="189.5" as="sourcePoint" />
            <mxPoint x="340" y="189.5" as="targetPoint" />
          </mxGeometry>
        </mxCell>
        <mxCell id="QMht9ULuBGOXYFGUmT4a-12" value="fill the default empty lists" style="html=1;verticalAlign=bottom;endArrow=block;" parent="HMWkxgygWb61pUtdUHci-1" target="QMht9ULuBGOXYFGUmT4a-5" edge="1">
          <mxGeometry width="80" relative="1" as="geometry">
            <mxPoint x="400" y="240" as="sourcePoint" />
            <mxPoint x="460" y="240" as="targetPoint" />
          </mxGeometry>
        </mxCell>
        <mxCell id="QMht9ULuBGOXYFGUmT4a-13" value="return" style="html=1;verticalAlign=bottom;endArrow=open;dashed=1;endSize=8;exitX=0.5;exitY=1.022;exitDx=0;exitDy=0;exitPerimeter=0;" parent="HMWkxgygWb61pUtdUHci-1" source="QMht9ULuBGOXYFGUmT4a-6" target="QMht9ULuBGOXYFGUmT4a-9" edge="1">
          <mxGeometry relative="1" as="geometry">
            <mxPoint x="500" y="300" as="sourcePoint" />
            <mxPoint x="420" y="300" as="targetPoint" />
          </mxGeometry>
        </mxCell>
      </root>
    </mxGraphModel>
  </diagram>
  <diagram id="YhnL9M5jhmBHt-GgvqB_" name="A3">
    <mxGraphModel dx="1347" dy="1627" grid="1" gridSize="10" guides="1" tooltips="1" connect="1" arrows="1" fold="1" page="1" pageScale="1" pageWidth="1169" pageHeight="827" math="0" shadow="0">
      <root>
        <mxCell id="tv28dFSjFx3lxV-VROlG-0" />
        <mxCell id="tv28dFSjFx3lxV-VROlG-1" parent="tv28dFSjFx3lxV-VROlG-0" />
        <mxCell id="uTJ1as3YrLdvtG5tofXZ-0" value="A3: Write Data to File" style="text;whiteSpace=wrap;html=1;" parent="tv28dFSjFx3lxV-VROlG-1" vertex="1">
          <mxGeometry x="10" y="-827" width="140" height="30" as="geometry" />
        </mxCell>
        <mxCell id="mSf2JODqcXYTHYsP45xg-0" value="dispatch" style="html=1;verticalAlign=bottom;startArrow=oval;startFill=1;endArrow=block;startSize=8;entryX=-0.3;entryY=0.049;entryDx=0;entryDy=0;entryPerimeter=0;" parent="tv28dFSjFx3lxV-VROlG-1" target="mSf2JODqcXYTHYsP45xg-3" edge="1">
          <mxGeometry width="60" relative="1" as="geometry">
            <mxPoint x="80" y="-700" as="sourcePoint" />
            <mxPoint x="140" y="-720" as="targetPoint" />
            <Array as="points">
              <mxPoint x="100" y="-700" />
            </Array>
          </mxGeometry>
        </mxCell>
        <mxCell id="mSf2JODqcXYTHYsP45xg-1" value="" style="shape=umlLifeline;participant=umlActor;perimeter=lifelinePerimeter;whiteSpace=wrap;html=1;container=1;collapsible=0;recursiveResize=0;verticalAlign=top;spacingTop=36;outlineConnect=0;" parent="tv28dFSjFx3lxV-VROlG-1" vertex="1">
          <mxGeometry x="160" y="-800" width="20" height="320" as="geometry" />
        </mxCell>
        <mxCell id="mSf2JODqcXYTHYsP45xg-3" value="" style="html=1;points=[];perimeter=orthogonalPerimeter;" parent="mSf2JODqcXYTHYsP45xg-1" vertex="1">
          <mxGeometry x="5" y="90" width="10" height="220" as="geometry" />
        </mxCell>
        <mxCell id="mSf2JODqcXYTHYsP45xg-2" value="&lt;span style=&quot;color: rgb(23, 43, 77); font-size: 14px; font-style: normal; font-weight: 400; letter-spacing: normal; text-align: left; text-indent: 0px; text-transform: none; word-spacing: 0px; background-color: rgb(244, 245, 247); display: inline; float: none;&quot;&gt;Class Director&lt;/span&gt;" style="text;whiteSpace=wrap;html=1;" parent="tv28dFSjFx3lxV-VROlG-1" vertex="1">
          <mxGeometry x="110" y="-750" width="110" height="30" as="geometry" />
        </mxCell>
        <mxCell id="mSf2JODqcXYTHYsP45xg-4" value="writing to the file" style="html=1;verticalAlign=bottom;endArrow=block;entryX=0.5;entryY=0;entryDx=0;entryDy=0;entryPerimeter=0;" parent="tv28dFSjFx3lxV-VROlG-1" target="gcFvtQWqD83bBFJl5VQN-10" edge="1">
          <mxGeometry width="80" relative="1" as="geometry">
            <mxPoint x="170" y="-680" as="sourcePoint" />
            <mxPoint x="290" y="-680" as="targetPoint" />
          </mxGeometry>
        </mxCell>
        <mxCell id="mSf2JODqcXYTHYsP45xg-5" value=":Teacher" style="shape=umlLifeline;perimeter=lifelinePerimeter;whiteSpace=wrap;html=1;container=1;collapsible=0;recursiveResize=0;outlineConnect=0;" parent="tv28dFSjFx3lxV-VROlG-1" vertex="1">
          <mxGeometry x="620" y="-800" width="100" height="320" as="geometry" />
        </mxCell>
        <mxCell id="mSf2JODqcXYTHYsP45xg-6" value="" style="html=1;points=[];perimeter=orthogonalPerimeter;" parent="mSf2JODqcXYTHYsP45xg-5" vertex="1">
          <mxGeometry x="45" y="210" width="10" height="60" as="geometry" />
        </mxCell>
        <mxCell id="mSf2JODqcXYTHYsP45xg-7" value=":SearchEngine" style="shape=umlLifeline;perimeter=lifelinePerimeter;whiteSpace=wrap;html=1;container=1;collapsible=0;recursiveResize=0;outlineConnect=0;" parent="tv28dFSjFx3lxV-VROlG-1" vertex="1">
          <mxGeometry x="890" y="-800" width="100" height="320" as="geometry" />
        </mxCell>
        <mxCell id="mSf2JODqcXYTHYsP45xg-9" value="" style="html=1;points=[];perimeter=orthogonalPerimeter;" parent="mSf2JODqcXYTHYsP45xg-7" vertex="1">
          <mxGeometry x="45" y="270" width="10" height="30" as="geometry" />
        </mxCell>
        <mxCell id="mSf2JODqcXYTHYsP45xg-8" value="add new data" style="html=1;verticalAlign=bottom;endArrow=block;" parent="tv28dFSjFx3lxV-VROlG-1" edge="1">
          <mxGeometry width="80" relative="1" as="geometry">
            <mxPoint x="561" y="-590" as="sourcePoint" />
            <mxPoint x="670" y="-590" as="targetPoint" />
          </mxGeometry>
        </mxCell>
        <mxCell id="mSf2JODqcXYTHYsP45xg-11" value="the updated version of the data to be preserved" style="html=1;verticalAlign=bottom;endArrow=block;entryX=0.367;entryY=-0.008;entryDx=0;entryDy=0;entryPerimeter=0;" parent="tv28dFSjFx3lxV-VROlG-1" target="mSf2JODqcXYTHYsP45xg-9" edge="1">
          <mxGeometry x="0.0421" width="80" relative="1" as="geometry">
            <mxPoint x="670" y="-530" as="sourcePoint" />
            <mxPoint x="929.5" y="-530" as="targetPoint" />
            <mxPoint as="offset" />
          </mxGeometry>
        </mxCell>
        <mxCell id="gcFvtQWqD83bBFJl5VQN-5" value=":DataHandling" style="shape=umlLifeline;perimeter=lifelinePerimeter;whiteSpace=wrap;html=1;container=1;collapsible=0;recursiveResize=0;outlineConnect=0;" parent="tv28dFSjFx3lxV-VROlG-1" vertex="1">
          <mxGeometry x="505" y="-800" width="100" height="320" as="geometry" />
        </mxCell>
        <mxCell id="gcFvtQWqD83bBFJl5VQN-6" value="" style="html=1;points=[];perimeter=orthogonalPerimeter;" parent="gcFvtQWqD83bBFJl5VQN-5" vertex="1">
          <mxGeometry x="45" y="180" width="10" height="30" as="geometry" />
        </mxCell>
        <mxCell id="gcFvtQWqD83bBFJl5VQN-7" value=":FileIO" style="shape=umlLifeline;perimeter=lifelinePerimeter;whiteSpace=wrap;html=1;container=1;collapsible=0;recursiveResize=0;outlineConnect=0;" parent="tv28dFSjFx3lxV-VROlG-1" vertex="1">
          <mxGeometry x="380" y="-800" width="100" height="320" as="geometry" />
        </mxCell>
        <mxCell id="gcFvtQWqD83bBFJl5VQN-8" value="" style="html=1;points=[];perimeter=orthogonalPerimeter;" parent="gcFvtQWqD83bBFJl5VQN-7" vertex="1">
          <mxGeometry x="45" y="150" width="10" height="30" as="geometry" />
        </mxCell>
        <mxCell id="gcFvtQWqD83bBFJl5VQN-9" value=":View" style="shape=umlLifeline;perimeter=lifelinePerimeter;whiteSpace=wrap;html=1;container=1;collapsible=0;recursiveResize=0;outlineConnect=0;" parent="tv28dFSjFx3lxV-VROlG-1" vertex="1">
          <mxGeometry x="250" y="-800" width="100" height="320" as="geometry" />
        </mxCell>
        <mxCell id="gcFvtQWqD83bBFJl5VQN-10" value="" style="html=1;points=[];perimeter=orthogonalPerimeter;" parent="gcFvtQWqD83bBFJl5VQN-9" vertex="1">
          <mxGeometry x="45" y="120" width="10" height="190" as="geometry" />
        </mxCell>
        <mxCell id="gcFvtQWqD83bBFJl5VQN-11" value="updated the data" style="html=1;verticalAlign=bottom;endArrow=block;" parent="tv28dFSjFx3lxV-VROlG-1" target="gcFvtQWqD83bBFJl5VQN-7" edge="1">
          <mxGeometry width="80" relative="1" as="geometry">
            <mxPoint x="310" y="-650" as="sourcePoint" />
            <mxPoint x="370" y="-650.5" as="targetPoint" />
          </mxGeometry>
        </mxCell>
        <mxCell id="gcFvtQWqD83bBFJl5VQN-12" value="updated the data" style="html=1;verticalAlign=bottom;endArrow=block;" parent="tv28dFSjFx3lxV-VROlG-1" edge="1">
          <mxGeometry width="80" relative="1" as="geometry">
            <mxPoint x="430" y="-620" as="sourcePoint" />
            <mxPoint x="554.5" y="-620" as="targetPoint" />
          </mxGeometry>
        </mxCell>
        <mxCell id="6pQ_3B80FkZgkmtvJsMU-2" value="return" style="html=1;verticalAlign=bottom;endArrow=open;dashed=1;endSize=8;" parent="tv28dFSjFx3lxV-VROlG-1" target="gcFvtQWqD83bBFJl5VQN-9" edge="1">
          <mxGeometry relative="1" as="geometry">
            <mxPoint x="940" y="-500" as="sourcePoint" />
            <mxPoint x="860" y="-500" as="targetPoint" />
          </mxGeometry>
        </mxCell>
      </root>
    </mxGraphModel>
  </diagram>
  <diagram id="-m9BJFnkwuUVWPCZMmjV" name="A4">
    <mxGraphModel dx="943" dy="560" grid="1" gridSize="10" guides="1" tooltips="1" connect="1" arrows="1" fold="1" page="1" pageScale="1" pageWidth="1169" pageHeight="827" math="0" shadow="0">
      <root>
        <mxCell id="HCqe5GGo7vbkvb0N4a4r-0" />
        <mxCell id="HCqe5GGo7vbkvb0N4a4r-1" parent="HCqe5GGo7vbkvb0N4a4r-0" />
        <mxCell id="QOWaO23nc6CDHJB2wrlk-0" value="A4: Choose File to Load" style="text;whiteSpace=wrap;html=1;" parent="HCqe5GGo7vbkvb0N4a4r-1" vertex="1">
          <mxGeometry x="10" width="150" height="30" as="geometry" />
        </mxCell>
        <mxCell id="QOWaO23nc6CDHJB2wrlk-1" value="dispatch" style="html=1;verticalAlign=bottom;startArrow=oval;startFill=1;endArrow=block;startSize=8;" parent="HCqe5GGo7vbkvb0N4a4r-1" edge="1">
          <mxGeometry width="60" relative="1" as="geometry">
            <mxPoint x="40" y="120" as="sourcePoint" />
            <mxPoint x="130" y="120" as="targetPoint" />
          </mxGeometry>
        </mxCell>
        <mxCell id="QOWaO23nc6CDHJB2wrlk-2" value="" style="shape=umlLifeline;participant=umlActor;perimeter=lifelinePerimeter;whiteSpace=wrap;html=1;container=1;collapsible=0;recursiveResize=0;verticalAlign=top;spacingTop=36;outlineConnect=0;" parent="HCqe5GGo7vbkvb0N4a4r-1" vertex="1">
          <mxGeometry x="130" y="40" width="20" height="300" as="geometry" />
        </mxCell>
        <mxCell id="QOWaO23nc6CDHJB2wrlk-4" value="" style="html=1;points=[];perimeter=orthogonalPerimeter;" parent="QOWaO23nc6CDHJB2wrlk-2" vertex="1">
          <mxGeometry x="5" y="70" width="10" height="200" as="geometry" />
        </mxCell>
        <mxCell id="QOWaO23nc6CDHJB2wrlk-3" value="&lt;span style=&quot;color: rgb(23, 43, 77); font-size: 14px; font-style: normal; font-weight: 400; letter-spacing: normal; text-align: left; text-indent: 0px; text-transform: none; word-spacing: 0px; background-color: rgb(244, 245, 247); display: inline; float: none;&quot;&gt;Class Director&lt;/span&gt;" style="text;whiteSpace=wrap;html=1;" parent="HCqe5GGo7vbkvb0N4a4r-1" vertex="1">
          <mxGeometry x="85" y="70" width="110" height="30" as="geometry" />
        </mxCell>
        <mxCell id="QOWaO23nc6CDHJB2wrlk-5" value="choose a file" style="html=1;verticalAlign=bottom;endArrow=block;" parent="HCqe5GGo7vbkvb0N4a4r-1" target="lVr3UKDg_qTVx9blORsD-0" edge="1">
          <mxGeometry width="80" relative="1" as="geometry">
            <mxPoint x="140" y="140" as="sourcePoint" />
            <mxPoint x="210" y="140" as="targetPoint" />
          </mxGeometry>
        </mxCell>
        <mxCell id="QOWaO23nc6CDHJB2wrlk-6" value=":DataHandling" style="shape=umlLifeline;perimeter=lifelinePerimeter;whiteSpace=wrap;html=1;container=1;collapsible=0;recursiveResize=0;outlineConnect=0;" parent="HCqe5GGo7vbkvb0N4a4r-1" vertex="1">
          <mxGeometry x="520" y="40" width="100" height="300" as="geometry" />
        </mxCell>
        <mxCell id="QOWaO23nc6CDHJB2wrlk-7" value="" style="html=1;points=[];perimeter=orthogonalPerimeter;" parent="QOWaO23nc6CDHJB2wrlk-6" vertex="1">
          <mxGeometry x="45" y="200" width="10" height="60" as="geometry" />
        </mxCell>
        <mxCell id="QOWaO23nc6CDHJB2wrlk-9" value=":FileIO" style="shape=umlLifeline;perimeter=lifelinePerimeter;whiteSpace=wrap;html=1;container=1;collapsible=0;recursiveResize=0;outlineConnect=0;" parent="HCqe5GGo7vbkvb0N4a4r-1" vertex="1">
          <mxGeometry x="350" y="40" width="100" height="300" as="geometry" />
        </mxCell>
        <mxCell id="QOWaO23nc6CDHJB2wrlk-10" value="" style="html=1;points=[];perimeter=orthogonalPerimeter;" parent="QOWaO23nc6CDHJB2wrlk-9" vertex="1">
          <mxGeometry x="45" y="150" width="10" height="50" as="geometry" />
        </mxCell>
        <mxCell id="lVr3UKDg_qTVx9blORsD-0" value=":View" style="shape=umlLifeline;perimeter=lifelinePerimeter;whiteSpace=wrap;html=1;container=1;collapsible=0;recursiveResize=0;outlineConnect=0;" parent="HCqe5GGo7vbkvb0N4a4r-1" vertex="1">
          <mxGeometry x="210" y="40" width="100" height="300" as="geometry" />
        </mxCell>
        <mxCell id="lVr3UKDg_qTVx9blORsD-1" value="" style="html=1;points=[];perimeter=orthogonalPerimeter;" parent="lVr3UKDg_qTVx9blORsD-0" vertex="1">
          <mxGeometry x="45" y="100" width="10" height="160" as="geometry" />
        </mxCell>
        <mxCell id="lVr3UKDg_qTVx9blORsD-2" value="&amp;nbsp;load into the program" style="html=1;verticalAlign=bottom;endArrow=block;" parent="HCqe5GGo7vbkvb0N4a4r-1" target="QOWaO23nc6CDHJB2wrlk-9" edge="1">
          <mxGeometry width="80" relative="1" as="geometry">
            <mxPoint x="260" y="189.5" as="sourcePoint" />
            <mxPoint x="340" y="189.5" as="targetPoint" />
          </mxGeometry>
        </mxCell>
        <mxCell id="lVr3UKDg_qTVx9blORsD-3" value="&amp;nbsp;load into the program" style="html=1;verticalAlign=bottom;endArrow=block;" parent="HCqe5GGo7vbkvb0N4a4r-1" target="QOWaO23nc6CDHJB2wrlk-6" edge="1">
          <mxGeometry width="80" relative="1" as="geometry">
            <mxPoint x="400" y="240" as="sourcePoint" />
            <mxPoint x="460" y="240" as="targetPoint" />
          </mxGeometry>
        </mxCell>
        <mxCell id="lVr3UKDg_qTVx9blORsD-4" value="return" style="html=1;verticalAlign=bottom;endArrow=open;dashed=1;endSize=8;exitX=0.5;exitY=1.022;exitDx=0;exitDy=0;exitPerimeter=0;" parent="HCqe5GGo7vbkvb0N4a4r-1" source="QOWaO23nc6CDHJB2wrlk-7" target="lVr3UKDg_qTVx9blORsD-0" edge="1">
          <mxGeometry relative="1" as="geometry">
            <mxPoint x="500" y="300" as="sourcePoint" />
            <mxPoint x="420" y="300" as="targetPoint" />
          </mxGeometry>
        </mxCell>
      </root>
    </mxGraphModel>
  </diagram>
  <diagram id="KDLeXEKqSzNwGv4d0kyJ" name="B1">
    <mxGraphModel dx="1109" dy="659" grid="1" gridSize="10" guides="1" tooltips="1" connect="1" arrows="1" fold="1" page="1" pageScale="1" pageWidth="1169" pageHeight="827" math="0" shadow="0">
      <root>
        <mxCell id="RtEat9TzP6FlpaMR5pAm-0" />
        <mxCell id="RtEat9TzP6FlpaMR5pAm-1" parent="RtEat9TzP6FlpaMR5pAm-0" />
        <mxCell id="RtEat9TzP6FlpaMR5pAm-2" value="B1: Find Suitable Staff" style="text;whiteSpace=wrap;html=1;" parent="RtEat9TzP6FlpaMR5pAm-1" vertex="1">
          <mxGeometry y="10" width="140" height="30" as="geometry" />
        </mxCell>
        <mxCell id="AvQmZ5L2yQyUXBR3Z9pb-0" value="dispatch" style="html=1;verticalAlign=bottom;startArrow=oval;startFill=1;endArrow=block;startSize=8;" parent="RtEat9TzP6FlpaMR5pAm-1" target="AvQmZ5L2yQyUXBR3Z9pb-1" edge="1">
          <mxGeometry width="60" relative="1" as="geometry">
            <mxPoint x="70" y="160" as="sourcePoint" />
            <mxPoint x="130" y="160" as="targetPoint" />
          </mxGeometry>
        </mxCell>
        <mxCell id="AvQmZ5L2yQyUXBR3Z9pb-1" value="" style="shape=umlLifeline;participant=umlActor;perimeter=lifelinePerimeter;whiteSpace=wrap;html=1;container=1;collapsible=0;recursiveResize=0;verticalAlign=top;spacingTop=36;outlineConnect=0;" parent="RtEat9TzP6FlpaMR5pAm-1" vertex="1">
          <mxGeometry x="150" y="80" width="20" height="390" as="geometry" />
        </mxCell>
        <mxCell id="AvQmZ5L2yQyUXBR3Z9pb-2" value="" style="html=1;points=[];perimeter=orthogonalPerimeter;" parent="AvQmZ5L2yQyUXBR3Z9pb-1" vertex="1">
          <mxGeometry x="5" y="80" width="10" height="290" as="geometry" />
        </mxCell>
        <mxCell id="AvQmZ5L2yQyUXBR3Z9pb-3" value="&lt;span style=&quot;color: rgb(23, 43, 77); font-size: 14px; font-style: normal; font-weight: 400; letter-spacing: normal; text-indent: 0px; text-transform: none; word-spacing: 0px; background-color: rgb(244, 245, 247); display: inline; float: none;&quot;&gt;Administrator&lt;/span&gt;" style="text;whiteSpace=wrap;html=1;" parent="RtEat9TzP6FlpaMR5pAm-1" vertex="1">
          <mxGeometry x="105" y="120" width="110" height="30" as="geometry" />
        </mxCell>
        <mxCell id="AvQmZ5L2yQyUXBR3Z9pb-4" value="input person" style="html=1;verticalAlign=bottom;endArrow=block;" parent="RtEat9TzP6FlpaMR5pAm-1" target="AvQmZ5L2yQyUXBR3Z9pb-17" edge="1">
          <mxGeometry width="80" relative="1" as="geometry">
            <mxPoint x="160" y="170" as="sourcePoint" />
            <mxPoint x="230" y="170" as="targetPoint" />
          </mxGeometry>
        </mxCell>
        <mxCell id="AvQmZ5L2yQyUXBR3Z9pb-5" value=":DataHanding" style="shape=umlLifeline;perimeter=lifelinePerimeter;whiteSpace=wrap;html=1;container=1;collapsible=0;recursiveResize=0;outlineConnect=0;" parent="RtEat9TzP6FlpaMR5pAm-1" vertex="1">
          <mxGeometry x="520" y="80" width="100" height="390" as="geometry" />
        </mxCell>
        <mxCell id="AvQmZ5L2yQyUXBR3Z9pb-6" value="" style="html=1;points=[];perimeter=orthogonalPerimeter;" parent="AvQmZ5L2yQyUXBR3Z9pb-5" vertex="1">
          <mxGeometry x="45" y="155" width="10" height="35" as="geometry" />
        </mxCell>
        <mxCell id="AvQmZ5L2yQyUXBR3Z9pb-7" value=":Teacher" style="shape=umlLifeline;perimeter=lifelinePerimeter;whiteSpace=wrap;html=1;container=1;collapsible=0;recursiveResize=0;outlineConnect=0;" parent="RtEat9TzP6FlpaMR5pAm-1" vertex="1">
          <mxGeometry x="640" y="80" width="100" height="380" as="geometry" />
        </mxCell>
        <mxCell id="AvQmZ5L2yQyUXBR3Z9pb-8" value="" style="html=1;points=[];perimeter=orthogonalPerimeter;" parent="AvQmZ5L2yQyUXBR3Z9pb-7" vertex="1">
          <mxGeometry x="45" y="261" width="10" height="30" as="geometry" />
        </mxCell>
        <mxCell id="AvQmZ5L2yQyUXBR3Z9pb-9" value="Select teacher" style="html=1;verticalAlign=bottom;endArrow=block;entryX=0.1;entryY=0.371;entryDx=0;entryDy=0;entryPerimeter=0;" parent="AvQmZ5L2yQyUXBR3Z9pb-7" edge="1">
          <mxGeometry width="80" relative="1" as="geometry">
            <mxPoint x="50" y="291" as="sourcePoint" />
            <mxPoint x="176" y="290.67999999999995" as="targetPoint" />
          </mxGeometry>
        </mxCell>
        <mxCell id="AvQmZ5L2yQyUXBR3Z9pb-10" value=":SearchEngine" style="shape=umlLifeline;perimeter=lifelinePerimeter;whiteSpace=wrap;html=1;container=1;collapsible=0;recursiveResize=0;outlineConnect=0;" parent="RtEat9TzP6FlpaMR5pAm-1" vertex="1">
          <mxGeometry x="770" y="80" width="100" height="380" as="geometry" />
        </mxCell>
        <mxCell id="AvQmZ5L2yQyUXBR3Z9pb-11" value="" style="html=1;points=[];perimeter=orthogonalPerimeter;" parent="AvQmZ5L2yQyUXBR3Z9pb-10" vertex="1">
          <mxGeometry x="45" y="291" width="10" height="20" as="geometry" />
        </mxCell>
        <mxCell id="AvQmZ5L2yQyUXBR3Z9pb-12" value=":Lab" style="shape=umlLifeline;perimeter=lifelinePerimeter;whiteSpace=wrap;html=1;container=1;collapsible=0;recursiveResize=0;outlineConnect=0;" parent="RtEat9TzP6FlpaMR5pAm-1" vertex="1">
          <mxGeometry x="940" y="80" width="100" height="380" as="geometry" />
        </mxCell>
        <mxCell id="AvQmZ5L2yQyUXBR3Z9pb-13" value="" style="html=1;points=[];perimeter=orthogonalPerimeter;" parent="AvQmZ5L2yQyUXBR3Z9pb-12" vertex="1">
          <mxGeometry x="45" y="311" width="10" height="30" as="geometry" />
        </mxCell>
        <mxCell id="AvQmZ5L2yQyUXBR3Z9pb-14" value=":FileIO" style="shape=umlLifeline;perimeter=lifelinePerimeter;whiteSpace=wrap;html=1;container=1;collapsible=0;recursiveResize=0;outlineConnect=0;" parent="RtEat9TzP6FlpaMR5pAm-1" vertex="1">
          <mxGeometry x="390" y="80" width="100" height="391" as="geometry" />
        </mxCell>
        <mxCell id="AvQmZ5L2yQyUXBR3Z9pb-15" value="" style="html=1;points=[];perimeter=orthogonalPerimeter;" parent="AvQmZ5L2yQyUXBR3Z9pb-14" vertex="1">
          <mxGeometry x="45" y="120" width="10" height="40" as="geometry" />
        </mxCell>
        <mxCell id="AvQmZ5L2yQyUXBR3Z9pb-27" value="" style="html=1;points=[];perimeter=orthogonalPerimeter;" parent="AvQmZ5L2yQyUXBR3Z9pb-14" vertex="1">
          <mxGeometry x="45" y="340" width="10" height="30" as="geometry" />
        </mxCell>
        <mxCell id="AvQmZ5L2yQyUXBR3Z9pb-16" value=":View" style="shape=umlLifeline;perimeter=lifelinePerimeter;whiteSpace=wrap;html=1;container=1;collapsible=0;recursiveResize=0;outlineConnect=0;" parent="RtEat9TzP6FlpaMR5pAm-1" vertex="1">
          <mxGeometry x="250" y="80" width="100" height="390" as="geometry" />
        </mxCell>
        <mxCell id="AvQmZ5L2yQyUXBR3Z9pb-17" value="" style="html=1;points=[];perimeter=orthogonalPerimeter;" parent="AvQmZ5L2yQyUXBR3Z9pb-16" vertex="1">
          <mxGeometry x="45" y="90" width="10" height="100" as="geometry" />
        </mxCell>
        <mxCell id="AvQmZ5L2yQyUXBR3Z9pb-18" value="" style="html=1;points=[];perimeter=orthogonalPerimeter;" parent="AvQmZ5L2yQyUXBR3Z9pb-16" vertex="1">
          <mxGeometry x="45" y="231" width="10" height="139" as="geometry" />
        </mxCell>
        <mxCell id="AvQmZ5L2yQyUXBR3Z9pb-19" value="upload file" style="html=1;verticalAlign=bottom;endArrow=block;" parent="RtEat9TzP6FlpaMR5pAm-1" target="AvQmZ5L2yQyUXBR3Z9pb-14" edge="1">
          <mxGeometry width="80" relative="1" as="geometry">
            <mxPoint x="300" y="200" as="sourcePoint" />
            <mxPoint x="380" y="200" as="targetPoint" />
          </mxGeometry>
        </mxCell>
        <mxCell id="AvQmZ5L2yQyUXBR3Z9pb-20" value="transfer data" style="html=1;verticalAlign=bottom;endArrow=block;" parent="RtEat9TzP6FlpaMR5pAm-1" edge="1">
          <mxGeometry width="80" relative="1" as="geometry">
            <mxPoint x="450" y="240" as="sourcePoint" />
            <mxPoint x="570" y="240" as="targetPoint" />
          </mxGeometry>
        </mxCell>
        <mxCell id="AvQmZ5L2yQyUXBR3Z9pb-21" value="input requirements" style="html=1;verticalAlign=bottom;endArrow=block;" parent="RtEat9TzP6FlpaMR5pAm-1" edge="1">
          <mxGeometry width="80" relative="1" as="geometry">
            <mxPoint x="160" y="311" as="sourcePoint" />
            <mxPoint x="299.5" y="311" as="targetPoint" />
          </mxGeometry>
        </mxCell>
        <mxCell id="AvQmZ5L2yQyUXBR3Z9pb-22" value="search teacher" style="html=1;verticalAlign=bottom;endArrow=block;" parent="RtEat9TzP6FlpaMR5pAm-1" edge="1">
          <mxGeometry width="80" relative="1" as="geometry">
            <mxPoint x="310" y="341" as="sourcePoint" />
            <mxPoint x="689.5" y="341" as="targetPoint" />
          </mxGeometry>
        </mxCell>
        <mxCell id="AvQmZ5L2yQyUXBR3Z9pb-23" value="According to lab requirements" style="html=1;verticalAlign=bottom;endArrow=block;" parent="RtEat9TzP6FlpaMR5pAm-1" target="AvQmZ5L2yQyUXBR3Z9pb-12" edge="1">
          <mxGeometry x="0.1429" y="10" width="80" relative="1" as="geometry">
            <mxPoint x="820" y="391" as="sourcePoint" />
            <mxPoint x="960" y="391" as="targetPoint" />
            <mxPoint as="offset" />
          </mxGeometry>
        </mxCell>
        <mxCell id="AvQmZ5L2yQyUXBR3Z9pb-24" value="return" style="html=1;verticalAlign=bottom;endArrow=open;dashed=1;endSize=8;exitX=0.3;exitY=1.006;exitDx=0;exitDy=0;exitPerimeter=0;" parent="RtEat9TzP6FlpaMR5pAm-1" source="AvQmZ5L2yQyUXBR3Z9pb-6" edge="1">
          <mxGeometry relative="1" as="geometry">
            <mxPoint x="568" y="270.21000000000004" as="sourcePoint" />
            <mxPoint x="305" y="270.21000000000004" as="targetPoint" />
          </mxGeometry>
        </mxCell>
        <mxCell id="AvQmZ5L2yQyUXBR3Z9pb-25" value="return result to load the .txt file" style="html=1;verticalAlign=bottom;endArrow=open;dashed=1;endSize=8;" parent="RtEat9TzP6FlpaMR5pAm-1" target="AvQmZ5L2yQyUXBR3Z9pb-27" edge="1">
          <mxGeometry relative="1" as="geometry">
            <mxPoint x="990" y="420" as="sourcePoint" />
            <mxPoint x="460" y="420" as="targetPoint" />
          </mxGeometry>
        </mxCell>
        <mxCell id="AvQmZ5L2yQyUXBR3Z9pb-26" value="return result" style="html=1;verticalAlign=bottom;endArrow=open;dashed=1;endSize=8;entryX=1.067;entryY=0.961;entryDx=0;entryDy=0;entryPerimeter=0;" parent="RtEat9TzP6FlpaMR5pAm-1" target="AvQmZ5L2yQyUXBR3Z9pb-2" edge="1">
          <mxGeometry relative="1" as="geometry">
            <mxPoint x="295" y="440" as="sourcePoint" />
            <mxPoint x="215" y="440" as="targetPoint" />
          </mxGeometry>
        </mxCell>
        <mxCell id="AvQmZ5L2yQyUXBR3Z9pb-28" value="return" style="html=1;verticalAlign=bottom;endArrow=open;dashed=1;endSize=8;" parent="RtEat9TzP6FlpaMR5pAm-1" source="AvQmZ5L2yQyUXBR3Z9pb-14" edge="1">
          <mxGeometry relative="1" as="geometry">
            <mxPoint x="380" y="430" as="sourcePoint" />
            <mxPoint x="300" y="430" as="targetPoint" />
          </mxGeometry>
        </mxCell>
      </root>
    </mxGraphModel>
  </diagram>
  <diagram id="Gx9M8Q7JION6J3UkhQ1Z" name="B2">
    <mxGraphModel dx="943" dy="560" grid="1" gridSize="10" guides="1" tooltips="1" connect="1" arrows="1" fold="1" page="1" pageScale="1" pageWidth="1169" pageHeight="827" math="0" shadow="0">
      <root>
        <mxCell id="okNeQzpsUWL8VanykTvO-0" />
        <mxCell id="okNeQzpsUWL8VanykTvO-1" parent="okNeQzpsUWL8VanykTvO-0" />
        <mxCell id="TYJiZzQrlrxW-om5aKSd-0" value="B2: Check if Staff Have Appropriate Training" style="text;whiteSpace=wrap;html=1;" parent="okNeQzpsUWL8VanykTvO-1" vertex="1">
          <mxGeometry x="10" width="260" height="30" as="geometry" />
        </mxCell>
        <mxCell id="TYJiZzQrlrxW-om5aKSd-1" value="dispatch" style="html=1;verticalAlign=bottom;startArrow=oval;startFill=1;endArrow=block;startSize=8;entryX=-0.167;entryY=0.044;entryDx=0;entryDy=0;entryPerimeter=0;" parent="okNeQzpsUWL8VanykTvO-1" target="TYJiZzQrlrxW-om5aKSd-4" edge="1">
          <mxGeometry width="60" relative="1" as="geometry">
            <mxPoint x="50" y="130" as="sourcePoint" />
            <mxPoint x="120" y="130" as="targetPoint" />
          </mxGeometry>
        </mxCell>
        <mxCell id="TYJiZzQrlrxW-om5aKSd-2" value="" style="shape=umlLifeline;participant=umlActor;perimeter=lifelinePerimeter;whiteSpace=wrap;html=1;container=1;collapsible=0;recursiveResize=0;verticalAlign=top;spacingTop=36;outlineConnect=0;" parent="okNeQzpsUWL8VanykTvO-1" vertex="1">
          <mxGeometry x="120" y="40" width="20" height="300" as="geometry" />
        </mxCell>
        <mxCell id="TYJiZzQrlrxW-om5aKSd-4" value="" style="html=1;points=[];perimeter=orthogonalPerimeter;" parent="TYJiZzQrlrxW-om5aKSd-2" vertex="1">
          <mxGeometry x="5" y="80" width="10" height="190" as="geometry" />
        </mxCell>
        <mxCell id="TYJiZzQrlrxW-om5aKSd-3" value="Administrato" style="text;whiteSpace=wrap;html=1;" parent="okNeQzpsUWL8VanykTvO-1" vertex="1">
          <mxGeometry x="80" y="80" width="90" height="30" as="geometry" />
        </mxCell>
        <mxCell id="TYJiZzQrlrxW-om5aKSd-5" value="input teacher skill" style="html=1;verticalAlign=bottom;endArrow=block;" parent="okNeQzpsUWL8VanykTvO-1" edge="1">
          <mxGeometry width="80" relative="1" as="geometry">
            <mxPoint x="138" y="140" as="sourcePoint" />
            <mxPoint x="260" y="140" as="targetPoint" />
          </mxGeometry>
        </mxCell>
        <mxCell id="TYJiZzQrlrxW-om5aKSd-6" value=":SearchEngine" style="shape=umlLifeline;perimeter=lifelinePerimeter;whiteSpace=wrap;html=1;container=1;collapsible=0;recursiveResize=0;outlineConnect=0;" parent="okNeQzpsUWL8VanykTvO-1" vertex="1">
          <mxGeometry x="330" y="40" width="100" height="300" as="geometry" />
        </mxCell>
        <mxCell id="TYJiZzQrlrxW-om5aKSd-7" value="" style="html=1;points=[];perimeter=orthogonalPerimeter;" parent="TYJiZzQrlrxW-om5aKSd-6" vertex="1">
          <mxGeometry x="45" y="120" width="10" height="40" as="geometry" />
        </mxCell>
        <mxCell id="g5lRtybaPbMFYCmqZ2j1-0" value=":View" style="shape=umlLifeline;perimeter=lifelinePerimeter;whiteSpace=wrap;html=1;container=1;collapsible=0;recursiveResize=0;outlineConnect=0;" parent="okNeQzpsUWL8VanykTvO-1" vertex="1">
          <mxGeometry x="210" y="40" width="100" height="300" as="geometry" />
        </mxCell>
        <mxCell id="g5lRtybaPbMFYCmqZ2j1-2" value="" style="html=1;points=[];perimeter=orthogonalPerimeter;" parent="g5lRtybaPbMFYCmqZ2j1-0" vertex="1">
          <mxGeometry x="45" y="100" width="10" height="100" as="geometry" />
        </mxCell>
        <mxCell id="g5lRtybaPbMFYCmqZ2j1-3" value="check stuff" style="html=1;verticalAlign=bottom;endArrow=block;" parent="okNeQzpsUWL8VanykTvO-1" target="TYJiZzQrlrxW-om5aKSd-6" edge="1">
          <mxGeometry width="80" relative="1" as="geometry">
            <mxPoint x="260" y="160" as="sourcePoint" />
            <mxPoint x="340" y="160" as="targetPoint" />
          </mxGeometry>
        </mxCell>
        <mxCell id="g5lRtybaPbMFYCmqZ2j1-4" value="return result" style="html=1;verticalAlign=bottom;endArrow=open;dashed=1;endSize=8;" parent="okNeQzpsUWL8VanykTvO-1" target="g5lRtybaPbMFYCmqZ2j1-0" edge="1">
          <mxGeometry relative="1" as="geometry">
            <mxPoint x="380" y="200" as="sourcePoint" />
            <mxPoint x="300" y="200" as="targetPoint" />
          </mxGeometry>
        </mxCell>
        <mxCell id="g5lRtybaPbMFYCmqZ2j1-5" value="return result" style="html=1;verticalAlign=bottom;endArrow=open;dashed=1;endSize=8;" parent="okNeQzpsUWL8VanykTvO-1" target="TYJiZzQrlrxW-om5aKSd-2" edge="1">
          <mxGeometry relative="1" as="geometry">
            <mxPoint x="250" y="240" as="sourcePoint" />
            <mxPoint x="170" y="240" as="targetPoint" />
          </mxGeometry>
        </mxCell>
      </root>
    </mxGraphModel>
  </diagram>
  <diagram id="RieTs4_xkW0q8FO369xl" name="B3">
    <mxGraphModel dx="943" dy="560" grid="1" gridSize="10" guides="1" tooltips="1" connect="1" arrows="1" fold="1" page="1" pageScale="1" pageWidth="1169" pageHeight="827" math="0" shadow="0">
      <root>
        <mxCell id="VSfChsbb3Q9eHQxGKfs0-0" />
        <mxCell id="VSfChsbb3Q9eHQxGKfs0-1" parent="VSfChsbb3Q9eHQxGKfs0-0" />
        <mxCell id="VSfChsbb3Q9eHQxGKfs0-2" value="dispatch" style="html=1;verticalAlign=bottom;startArrow=oval;startFill=1;endArrow=block;startSize=8;" parent="VSfChsbb3Q9eHQxGKfs0-1" target="VSfChsbb3Q9eHQxGKfs0-3" edge="1">
          <mxGeometry width="60" relative="1" as="geometry">
            <mxPoint x="80" y="120" as="sourcePoint" />
            <mxPoint x="140" y="120" as="targetPoint" />
          </mxGeometry>
        </mxCell>
        <mxCell id="VSfChsbb3Q9eHQxGKfs0-3" value="" style="shape=umlLifeline;participant=umlActor;perimeter=lifelinePerimeter;whiteSpace=wrap;html=1;container=1;collapsible=0;recursiveResize=0;verticalAlign=top;spacingTop=36;outlineConnect=0;" parent="VSfChsbb3Q9eHQxGKfs0-1" vertex="1">
          <mxGeometry x="160" y="40" width="20" height="390" as="geometry" />
        </mxCell>
        <mxCell id="VSfChsbb3Q9eHQxGKfs0-6" value="" style="html=1;points=[];perimeter=orthogonalPerimeter;" parent="VSfChsbb3Q9eHQxGKfs0-3" vertex="1">
          <mxGeometry x="5" y="80" width="10" height="290" as="geometry" />
        </mxCell>
        <mxCell id="VSfChsbb3Q9eHQxGKfs0-4" value="&lt;span style=&quot;color: rgb(23, 43, 77); font-size: 14px; font-style: normal; font-weight: 400; letter-spacing: normal; text-indent: 0px; text-transform: none; word-spacing: 0px; background-color: rgb(244, 245, 247); display: inline; float: none;&quot;&gt;Administrator&lt;/span&gt;" style="text;whiteSpace=wrap;html=1;" parent="VSfChsbb3Q9eHQxGKfs0-1" vertex="1">
          <mxGeometry x="115" y="80" width="110" height="30" as="geometry" />
        </mxCell>
        <mxCell id="VSfChsbb3Q9eHQxGKfs0-5" value="input person" style="html=1;verticalAlign=bottom;endArrow=block;" parent="VSfChsbb3Q9eHQxGKfs0-1" target="4lEjxSULuDBXnrTFSrmp-2" edge="1">
          <mxGeometry width="80" relative="1" as="geometry">
            <mxPoint x="170" y="130" as="sourcePoint" />
            <mxPoint x="240" y="130" as="targetPoint" />
          </mxGeometry>
        </mxCell>
        <mxCell id="VSfChsbb3Q9eHQxGKfs0-7" value=":DataHanding" style="shape=umlLifeline;perimeter=lifelinePerimeter;whiteSpace=wrap;html=1;container=1;collapsible=0;recursiveResize=0;outlineConnect=0;" parent="VSfChsbb3Q9eHQxGKfs0-1" vertex="1">
          <mxGeometry x="530" y="40" width="100" height="390" as="geometry" />
        </mxCell>
        <mxCell id="VSfChsbb3Q9eHQxGKfs0-9" value="" style="html=1;points=[];perimeter=orthogonalPerimeter;" parent="VSfChsbb3Q9eHQxGKfs0-7" vertex="1">
          <mxGeometry x="45" y="155" width="10" height="35" as="geometry" />
        </mxCell>
        <mxCell id="VSfChsbb3Q9eHQxGKfs0-8" value="B3: Add a Teacher to a Lab" style="text;whiteSpace=wrap;html=1;" parent="VSfChsbb3Q9eHQxGKfs0-1" vertex="1">
          <mxGeometry x="10" width="170" height="30" as="geometry" />
        </mxCell>
        <mxCell id="VSfChsbb3Q9eHQxGKfs0-11" value=":SearchEngine" style="shape=umlLifeline;perimeter=lifelinePerimeter;whiteSpace=wrap;html=1;container=1;collapsible=0;recursiveResize=0;outlineConnect=0;" parent="VSfChsbb3Q9eHQxGKfs0-1" vertex="1">
          <mxGeometry x="650" y="40" width="100" height="380" as="geometry" />
        </mxCell>
        <mxCell id="VSfChsbb3Q9eHQxGKfs0-12" value="" style="html=1;points=[];perimeter=orthogonalPerimeter;" parent="VSfChsbb3Q9eHQxGKfs0-11" vertex="1">
          <mxGeometry x="45" y="261" width="10" height="30" as="geometry" />
        </mxCell>
        <mxCell id="VSfChsbb3Q9eHQxGKfs0-14" value="Select teacher" style="html=1;verticalAlign=bottom;endArrow=block;entryX=0.1;entryY=0.371;entryDx=0;entryDy=0;entryPerimeter=0;" parent="VSfChsbb3Q9eHQxGKfs0-11" edge="1">
          <mxGeometry width="80" relative="1" as="geometry">
            <mxPoint x="50" y="291" as="sourcePoint" />
            <mxPoint x="176" y="290.67999999999995" as="targetPoint" />
          </mxGeometry>
        </mxCell>
        <mxCell id="VSfChsbb3Q9eHQxGKfs0-13" value=":Teacher" style="shape=umlLifeline;perimeter=lifelinePerimeter;whiteSpace=wrap;html=1;container=1;collapsible=0;recursiveResize=0;outlineConnect=0;" parent="VSfChsbb3Q9eHQxGKfs0-1" vertex="1">
          <mxGeometry x="780" y="40" width="100" height="380" as="geometry" />
        </mxCell>
        <mxCell id="VSfChsbb3Q9eHQxGKfs0-15" value="" style="html=1;points=[];perimeter=orthogonalPerimeter;" parent="VSfChsbb3Q9eHQxGKfs0-13" vertex="1">
          <mxGeometry x="45" y="291" width="10" height="20" as="geometry" />
        </mxCell>
        <mxCell id="VSfChsbb3Q9eHQxGKfs0-17" value=":Lab" style="shape=umlLifeline;perimeter=lifelinePerimeter;whiteSpace=wrap;html=1;container=1;collapsible=0;recursiveResize=0;outlineConnect=0;" parent="VSfChsbb3Q9eHQxGKfs0-1" vertex="1">
          <mxGeometry x="950" y="40" width="100" height="380" as="geometry" />
        </mxCell>
        <mxCell id="VSfChsbb3Q9eHQxGKfs0-18" value="" style="html=1;points=[];perimeter=orthogonalPerimeter;" parent="VSfChsbb3Q9eHQxGKfs0-17" vertex="1">
          <mxGeometry x="45" y="311" width="10" height="30" as="geometry" />
        </mxCell>
        <mxCell id="VSfChsbb3Q9eHQxGKfs0-20" value=":FileIO" style="shape=umlLifeline;perimeter=lifelinePerimeter;whiteSpace=wrap;html=1;container=1;collapsible=0;recursiveResize=0;outlineConnect=0;" parent="VSfChsbb3Q9eHQxGKfs0-1" vertex="1">
          <mxGeometry x="400" y="40" width="100" height="370" as="geometry" />
        </mxCell>
        <mxCell id="4lEjxSULuDBXnrTFSrmp-0" value="" style="html=1;points=[];perimeter=orthogonalPerimeter;" parent="VSfChsbb3Q9eHQxGKfs0-20" vertex="1">
          <mxGeometry x="45" y="120" width="10" height="40" as="geometry" />
        </mxCell>
        <mxCell id="4lEjxSULuDBXnrTFSrmp-1" value=":View" style="shape=umlLifeline;perimeter=lifelinePerimeter;whiteSpace=wrap;html=1;container=1;collapsible=0;recursiveResize=0;outlineConnect=0;" parent="VSfChsbb3Q9eHQxGKfs0-1" vertex="1">
          <mxGeometry x="260" y="40" width="100" height="390" as="geometry" />
        </mxCell>
        <mxCell id="4lEjxSULuDBXnrTFSrmp-2" value="" style="html=1;points=[];perimeter=orthogonalPerimeter;" parent="4lEjxSULuDBXnrTFSrmp-1" vertex="1">
          <mxGeometry x="45" y="90" width="10" height="100" as="geometry" />
        </mxCell>
        <mxCell id="7oWq6qkZjLoupEM6wwKX-3" value="" style="html=1;points=[];perimeter=orthogonalPerimeter;" parent="4lEjxSULuDBXnrTFSrmp-1" vertex="1">
          <mxGeometry x="45" y="231" width="10" height="139" as="geometry" />
        </mxCell>
        <mxCell id="qkeBwnCxoC7kbDCbIsVO-0" value="upload file" style="html=1;verticalAlign=bottom;endArrow=block;" parent="VSfChsbb3Q9eHQxGKfs0-1" target="VSfChsbb3Q9eHQxGKfs0-20" edge="1">
          <mxGeometry width="80" relative="1" as="geometry">
            <mxPoint x="310" y="160" as="sourcePoint" />
            <mxPoint x="390" y="160" as="targetPoint" />
          </mxGeometry>
        </mxCell>
        <mxCell id="qkeBwnCxoC7kbDCbIsVO-1" value="transfer data" style="html=1;verticalAlign=bottom;endArrow=block;" parent="VSfChsbb3Q9eHQxGKfs0-1" edge="1">
          <mxGeometry width="80" relative="1" as="geometry">
            <mxPoint x="460" y="200" as="sourcePoint" />
            <mxPoint x="580" y="200" as="targetPoint" />
          </mxGeometry>
        </mxCell>
        <mxCell id="7oWq6qkZjLoupEM6wwKX-2" value="add teacher" style="html=1;verticalAlign=bottom;endArrow=block;" parent="VSfChsbb3Q9eHQxGKfs0-1" edge="1">
          <mxGeometry width="80" relative="1" as="geometry">
            <mxPoint x="170" y="271" as="sourcePoint" />
            <mxPoint x="309.5" y="271" as="targetPoint" />
          </mxGeometry>
        </mxCell>
        <mxCell id="7oWq6qkZjLoupEM6wwKX-4" value="search teacher" style="html=1;verticalAlign=bottom;endArrow=block;" parent="VSfChsbb3Q9eHQxGKfs0-1" edge="1">
          <mxGeometry width="80" relative="1" as="geometry">
            <mxPoint x="320" y="301" as="sourcePoint" />
            <mxPoint x="699.5" y="301" as="targetPoint" />
          </mxGeometry>
        </mxCell>
        <mxCell id="7oWq6qkZjLoupEM6wwKX-5" value="According to lab requirements" style="html=1;verticalAlign=bottom;endArrow=block;" parent="VSfChsbb3Q9eHQxGKfs0-1" target="VSfChsbb3Q9eHQxGKfs0-17" edge="1">
          <mxGeometry x="0.1429" y="10" width="80" relative="1" as="geometry">
            <mxPoint x="830" y="351" as="sourcePoint" />
            <mxPoint x="970" y="351" as="targetPoint" />
            <mxPoint as="offset" />
          </mxGeometry>
        </mxCell>
        <mxCell id="7oWq6qkZjLoupEM6wwKX-6" value="return" style="html=1;verticalAlign=bottom;endArrow=open;dashed=1;endSize=8;exitX=0.3;exitY=1.006;exitDx=0;exitDy=0;exitPerimeter=0;" parent="VSfChsbb3Q9eHQxGKfs0-1" source="VSfChsbb3Q9eHQxGKfs0-9" edge="1">
          <mxGeometry relative="1" as="geometry">
            <mxPoint x="578" y="230.21000000000004" as="sourcePoint" />
            <mxPoint x="315" y="230.21000000000004" as="targetPoint" />
          </mxGeometry>
        </mxCell>
        <mxCell id="7oWq6qkZjLoupEM6wwKX-7" value="return result" style="html=1;verticalAlign=bottom;endArrow=open;dashed=1;endSize=8;" parent="VSfChsbb3Q9eHQxGKfs0-1" target="4lEjxSULuDBXnrTFSrmp-1" edge="1">
          <mxGeometry relative="1" as="geometry">
            <mxPoint x="1000" y="380" as="sourcePoint" />
            <mxPoint x="920" y="380" as="targetPoint" />
          </mxGeometry>
        </mxCell>
        <mxCell id="7oWq6qkZjLoupEM6wwKX-8" value="return result" style="html=1;verticalAlign=bottom;endArrow=open;dashed=1;endSize=8;entryX=1.067;entryY=0.961;entryDx=0;entryDy=0;entryPerimeter=0;" parent="VSfChsbb3Q9eHQxGKfs0-1" target="VSfChsbb3Q9eHQxGKfs0-6" edge="1">
          <mxGeometry relative="1" as="geometry">
            <mxPoint x="305" y="400" as="sourcePoint" />
            <mxPoint x="225" y="400" as="targetPoint" />
          </mxGeometry>
        </mxCell>
        <mxCell id="EvpIUmjvd59fbg13s4tD-0" value="loop" style="shape=umlFrame;whiteSpace=wrap;html=1;" parent="VSfChsbb3Q9eHQxGKfs0-1" vertex="1">
          <mxGeometry x="100" y="250" width="960" height="200" as="geometry" />
        </mxCell>
      </root>
    </mxGraphModel>
  </diagram>
  <diagram id="KoZutEyqs9RA5qmoK7cq" name="A4 delete">
    <mxGraphModel dx="943" dy="560" grid="1" gridSize="10" guides="1" tooltips="1" connect="1" arrows="1" fold="1" page="1" pageScale="1" pageWidth="1169" pageHeight="827" math="0" shadow="0">
      <root>
        <mxCell id="b3pDVfY7OfAeshCrEr7K-0" />
        <mxCell id="b3pDVfY7OfAeshCrEr7K-1" parent="b3pDVfY7OfAeshCrEr7K-0" />
        <mxCell id="TL_rINehSJYfGlO3ihXh-0" value="A4: Access Updated File" style="text;whiteSpace=wrap;html=1;" parent="b3pDVfY7OfAeshCrEr7K-1" vertex="1">
          <mxGeometry x="10" width="160" height="30" as="geometry" />
        </mxCell>
        <mxCell id="TL_rINehSJYfGlO3ihXh-1" value="dispatch" style="html=1;verticalAlign=bottom;startArrow=oval;startFill=1;endArrow=block;startSize=8;entryX=0.167;entryY=0.052;entryDx=0;entryDy=0;entryPerimeter=0;" parent="b3pDVfY7OfAeshCrEr7K-1" target="TL_rINehSJYfGlO3ihXh-4" edge="1">
          <mxGeometry width="60" relative="1" as="geometry">
            <mxPoint x="70" y="130" as="sourcePoint" />
            <mxPoint x="141" y="130" as="targetPoint" />
          </mxGeometry>
        </mxCell>
        <mxCell id="TL_rINehSJYfGlO3ihXh-2" value="" style="shape=umlLifeline;participant=umlActor;perimeter=lifelinePerimeter;whiteSpace=wrap;html=1;container=1;collapsible=0;recursiveResize=0;verticalAlign=top;spacingTop=36;outlineConnect=0;" parent="b3pDVfY7OfAeshCrEr7K-1" vertex="1">
          <mxGeometry x="140" y="40" width="20" height="300" as="geometry" />
        </mxCell>
        <mxCell id="TL_rINehSJYfGlO3ihXh-4" value="" style="html=1;points=[];perimeter=orthogonalPerimeter;" parent="TL_rINehSJYfGlO3ihXh-2" vertex="1">
          <mxGeometry x="5" y="80" width="10" height="200" as="geometry" />
        </mxCell>
        <mxCell id="TL_rINehSJYfGlO3ihXh-3" value="&lt;span style=&quot;color: rgb(23, 43, 77); font-size: 14px; font-style: normal; font-weight: 400; letter-spacing: normal; text-align: left; text-indent: 0px; text-transform: none; word-spacing: 0px; background-color: rgb(244, 245, 247); display: inline; float: none;&quot;&gt;Class Director&lt;/span&gt;" style="text;whiteSpace=wrap;html=1;" parent="b3pDVfY7OfAeshCrEr7K-1" vertex="1">
          <mxGeometry x="90" y="80" width="110" height="30" as="geometry" />
        </mxCell>
        <mxCell id="TL_rINehSJYfGlO3ihXh-5" value="access the updated file" style="html=1;verticalAlign=bottom;endArrow=block;" parent="b3pDVfY7OfAeshCrEr7K-1" edge="1">
          <mxGeometry width="80" relative="1" as="geometry">
            <mxPoint x="156" y="150" as="sourcePoint" />
            <mxPoint x="296" y="150" as="targetPoint" />
          </mxGeometry>
        </mxCell>
        <mxCell id="TL_rINehSJYfGlO3ihXh-6" value=":DataHandling" style="shape=umlLifeline;perimeter=lifelinePerimeter;whiteSpace=wrap;html=1;container=1;collapsible=0;recursiveResize=0;outlineConnect=0;" parent="b3pDVfY7OfAeshCrEr7K-1" vertex="1">
          <mxGeometry x="250" y="40" width="100" height="300" as="geometry" />
        </mxCell>
        <mxCell id="TL_rINehSJYfGlO3ihXh-7" value="" style="html=1;points=[];perimeter=orthogonalPerimeter;" parent="TL_rINehSJYfGlO3ihXh-6" vertex="1">
          <mxGeometry x="45" y="100" width="10" height="60" as="geometry" />
        </mxCell>
        <mxCell id="TL_rINehSJYfGlO3ihXh-8" value="read data from file" style="html=1;verticalAlign=bottom;endArrow=block;" parent="b3pDVfY7OfAeshCrEr7K-1" edge="1">
          <mxGeometry width="80" relative="1" as="geometry">
            <mxPoint x="310" y="189.5" as="sourcePoint" />
            <mxPoint x="430" y="190" as="targetPoint" />
          </mxGeometry>
        </mxCell>
        <mxCell id="TL_rINehSJYfGlO3ihXh-9" value=":FileIO" style="shape=umlLifeline;perimeter=lifelinePerimeter;whiteSpace=wrap;html=1;container=1;collapsible=0;recursiveResize=0;outlineConnect=0;" parent="b3pDVfY7OfAeshCrEr7K-1" vertex="1">
          <mxGeometry x="390" y="40" width="100" height="300" as="geometry" />
        </mxCell>
        <mxCell id="TL_rINehSJYfGlO3ihXh-10" value="" style="html=1;points=[];perimeter=orthogonalPerimeter;" parent="TL_rINehSJYfGlO3ihXh-9" vertex="1">
          <mxGeometry x="45" y="140" width="10" height="60" as="geometry" />
        </mxCell>
        <mxCell id="TL_rINehSJYfGlO3ihXh-11" value="return" style="html=1;verticalAlign=bottom;endArrow=open;dashed=1;endSize=8;" parent="b3pDVfY7OfAeshCrEr7K-1" target="TL_rINehSJYfGlO3ihXh-2" edge="1">
          <mxGeometry relative="1" as="geometry">
            <mxPoint x="430" y="230" as="sourcePoint" />
            <mxPoint x="350" y="230" as="targetPoint" />
          </mxGeometry>
        </mxCell>
      </root>
    </mxGraphModel>
  </diagram>
  <diagram id="oQhhWwfkNNaE0jixdWmV" name="A1, A2, A4  MVC">
    <mxGraphModel dx="1936" dy="659" grid="1" gridSize="10" guides="1" tooltips="1" connect="1" arrows="1" fold="1" page="1" pageScale="1" pageWidth="827" pageHeight="1169" math="0" shadow="0">
      <root>
        <mxCell id="KrGE8ehnG4ziwq_qoSwl-0" />
        <mxCell id="KrGE8ehnG4ziwq_qoSwl-1" parent="KrGE8ehnG4ziwq_qoSwl-0" />
        <mxCell id="DfmPbPp52cDktXiG-qpe-0" value=":FileIO" style="shape=umlLifeline;perimeter=lifelinePerimeter;container=1;collapsible=0;recursiveResize=0;rounded=0;shadow=0;strokeWidth=1;" vertex="1" parent="KrGE8ehnG4ziwq_qoSwl-1">
          <mxGeometry x="-270" y="80" width="100" height="340" as="geometry" />
        </mxCell>
        <mxCell id="DfmPbPp52cDktXiG-qpe-1" value="" style="points=[];perimeter=orthogonalPerimeter;rounded=0;shadow=0;strokeWidth=1;" vertex="1" parent="DfmPbPp52cDktXiG-qpe-0">
          <mxGeometry x="45" y="160" width="10" height="90" as="geometry" />
        </mxCell>
        <mxCell id="DfmPbPp52cDktXiG-qpe-2" value=":DataHanding" style="shape=umlLifeline;perimeter=lifelinePerimeter;container=1;collapsible=0;recursiveResize=0;rounded=0;shadow=0;strokeWidth=1;" vertex="1" parent="KrGE8ehnG4ziwq_qoSwl-1">
          <mxGeometry x="-150" y="80" width="100" height="340" as="geometry" />
        </mxCell>
        <mxCell id="DfmPbPp52cDktXiG-qpe-3" value="" style="html=1;points=[];perimeter=orthogonalPerimeter;" vertex="1" parent="DfmPbPp52cDktXiG-qpe-2">
          <mxGeometry x="45" y="165" width="10" height="85" as="geometry" />
        </mxCell>
        <mxCell id="DfmPbPp52cDktXiG-qpe-4" value="" style="shape=umlLifeline;participant=umlActor;perimeter=lifelinePerimeter;whiteSpace=wrap;html=1;container=1;collapsible=0;recursiveResize=0;verticalAlign=top;spacingTop=36;outlineConnect=0;" vertex="1" parent="KrGE8ehnG4ziwq_qoSwl-1">
          <mxGeometry x="-687" y="80" width="20" height="350" as="geometry" />
        </mxCell>
        <mxCell id="DfmPbPp52cDktXiG-qpe-5" value="" style="html=1;points=[];perimeter=orthogonalPerimeter;" vertex="1" parent="DfmPbPp52cDktXiG-qpe-4">
          <mxGeometry x="5" y="110" width="10" height="150" as="geometry" />
        </mxCell>
        <mxCell id="DfmPbPp52cDktXiG-qpe-6" value="dispatch" style="verticalAlign=bottom;startArrow=oval;endArrow=block;startSize=8;shadow=0;strokeWidth=1;curved=1;" edge="1" parent="KrGE8ehnG4ziwq_qoSwl-1" target="DfmPbPp52cDktXiG-qpe-4">
          <mxGeometry relative="1" as="geometry">
            <mxPoint x="-747" y="190" as="sourcePoint" />
            <mxPoint x="-687" y="190" as="targetPoint" />
          </mxGeometry>
        </mxCell>
        <mxCell id="DfmPbPp52cDktXiG-qpe-7" value="&lt;span style=&quot;color: rgb(23, 43, 77); font-size: 14px; font-style: normal; font-weight: 400; letter-spacing: normal; text-align: left; text-indent: 0px; text-transform: none; word-spacing: 0px; background-color: rgb(244, 245, 247); display: inline; float: none;&quot;&gt;Class Director&lt;/span&gt;" style="text;whiteSpace=wrap;html=1;" vertex="1" parent="KrGE8ehnG4ziwq_qoSwl-1">
          <mxGeometry x="-740" y="130" width="115" height="45" as="geometry" />
        </mxCell>
        <mxCell id="DfmPbPp52cDktXiG-qpe-8" value="A1: Load Data from File" style="text;whiteSpace=wrap;html=1;" vertex="1" parent="KrGE8ehnG4ziwq_qoSwl-1">
          <mxGeometry x="-827" y="50" width="150" height="30" as="geometry" />
        </mxCell>
        <mxCell id="DfmPbPp52cDktXiG-qpe-9" value=":View" style="shape=umlLifeline;perimeter=lifelinePerimeter;whiteSpace=wrap;html=1;container=1;collapsible=0;recursiveResize=0;outlineConnect=0;" vertex="1" parent="KrGE8ehnG4ziwq_qoSwl-1">
          <mxGeometry x="-607" y="80" width="100" height="340" as="geometry" />
        </mxCell>
        <mxCell id="DfmPbPp52cDktXiG-qpe-10" value="" style="html=1;points=[];perimeter=orthogonalPerimeter;" vertex="1" parent="DfmPbPp52cDktXiG-qpe-9">
          <mxGeometry x="45" y="130" width="10" height="120" as="geometry" />
        </mxCell>
        <mxCell id="DfmPbPp52cDktXiG-qpe-11" value="user input&lt;br&gt;(button click)" style="html=1;verticalAlign=bottom;endArrow=block;" edge="1" parent="KrGE8ehnG4ziwq_qoSwl-1" target="DfmPbPp52cDktXiG-qpe-10">
          <mxGeometry width="80" relative="1" as="geometry">
            <mxPoint x="-677" y="210" as="sourcePoint" />
            <mxPoint x="-597" y="210" as="targetPoint" />
            <mxPoint as="offset" />
          </mxGeometry>
        </mxCell>
        <mxCell id="DfmPbPp52cDktXiG-qpe-12" value="handle event" style="html=1;verticalAlign=bottom;endArrow=block;" edge="1" parent="KrGE8ehnG4ziwq_qoSwl-1">
          <mxGeometry x="-0.1828" y="10" width="80" relative="1" as="geometry">
            <mxPoint x="-550" y="240" as="sourcePoint" />
            <mxPoint x="-440.5" y="239.5" as="targetPoint" />
            <mxPoint as="offset" />
          </mxGeometry>
        </mxCell>
        <mxCell id="DfmPbPp52cDktXiG-qpe-15" value="Controller" style="shape=umlLifeline;perimeter=lifelinePerimeter;whiteSpace=wrap;html=1;container=1;collapsible=0;recursiveResize=0;outlineConnect=0;" vertex="1" parent="KrGE8ehnG4ziwq_qoSwl-1">
          <mxGeometry x="-490" y="80" width="100" height="340" as="geometry" />
        </mxCell>
        <mxCell id="DfmPbPp52cDktXiG-qpe-16" value="" style="html=1;points=[];perimeter=orthogonalPerimeter;" vertex="1" parent="DfmPbPp52cDktXiG-qpe-15">
          <mxGeometry x="45" y="130" width="10" height="120" as="geometry" />
        </mxCell>
        <mxCell id="DfmPbPp52cDktXiG-qpe-17" value="Model" style="shape=umlLifeline;perimeter=lifelinePerimeter;whiteSpace=wrap;html=1;container=1;collapsible=0;recursiveResize=0;outlineConnect=0;" vertex="1" parent="KrGE8ehnG4ziwq_qoSwl-1">
          <mxGeometry x="-380" y="80" width="100" height="340" as="geometry" />
        </mxCell>
        <mxCell id="DfmPbPp52cDktXiG-qpe-18" value="" style="html=1;points=[];perimeter=orthogonalPerimeter;" vertex="1" parent="DfmPbPp52cDktXiG-qpe-17">
          <mxGeometry x="45" y="150" width="10" height="100" as="geometry" />
        </mxCell>
        <mxCell id="DfmPbPp52cDktXiG-qpe-19" value="Model calls upon&amp;nbsp;&lt;br&gt;FileIO&#39;s&amp;nbsp;&lt;br&gt;.uploadFile()" style="html=1;verticalAlign=bottom;endArrow=block;" edge="1" parent="KrGE8ehnG4ziwq_qoSwl-1">
          <mxGeometry x="0.0967" y="10" width="80" relative="1" as="geometry">
            <mxPoint x="-440" y="250" as="sourcePoint" />
            <mxPoint x="-330.5" y="249.5" as="targetPoint" />
            <mxPoint as="offset" />
          </mxGeometry>
        </mxCell>
        <mxCell id="DfmPbPp52cDktXiG-qpe-20" value="" style="endArrow=classic;html=1;" edge="1" parent="KrGE8ehnG4ziwq_qoSwl-1">
          <mxGeometry width="50" height="50" relative="1" as="geometry">
            <mxPoint x="-320" y="250" as="sourcePoint" />
            <mxPoint x="-230" y="250" as="targetPoint" />
          </mxGeometry>
        </mxCell>
        <mxCell id="DfmPbPp52cDktXiG-qpe-21" value="User chooses&lt;br&gt;file to&amp;nbsp;&lt;br&gt;upload" style="text;html=1;align=center;verticalAlign=middle;resizable=0;points=[];autosize=1;strokeColor=none;" vertex="1" parent="KrGE8ehnG4ziwq_qoSwl-1">
          <mxGeometry x="-325" y="195" width="90" height="50" as="geometry" />
        </mxCell>
        <mxCell id="DfmPbPp52cDktXiG-qpe-22" value="" style="endArrow=classic;html=1;entryX=0.1;entryY=0.083;entryDx=0;entryDy=0;entryPerimeter=0;" edge="1" parent="KrGE8ehnG4ziwq_qoSwl-1" target="DfmPbPp52cDktXiG-qpe-3">
          <mxGeometry width="50" height="50" relative="1" as="geometry">
            <mxPoint x="-210" y="250" as="sourcePoint" />
            <mxPoint x="-160" y="200" as="targetPoint" />
          </mxGeometry>
        </mxCell>
        <mxCell id="DfmPbPp52cDktXiG-qpe-23" value="Uploaded file&lt;br&gt;passed to&amp;nbsp;&lt;br&gt;DataHandling&#39;s&lt;br&gt;.dataHandler()" style="text;html=1;align=center;verticalAlign=middle;resizable=0;points=[];autosize=1;strokeColor=none;" vertex="1" parent="KrGE8ehnG4ziwq_qoSwl-1">
          <mxGeometry x="-210" y="180" width="100" height="60" as="geometry" />
        </mxCell>
        <mxCell id="DfmPbPp52cDktXiG-qpe-24" value="" style="endArrow=none;dashed=1;html=1;dashPattern=1 3;strokeWidth=2;startArrow=none;" edge="1" parent="KrGE8ehnG4ziwq_qoSwl-1" target="DfmPbPp52cDktXiG-qpe-4">
          <mxGeometry width="50" height="50" relative="1" as="geometry">
            <mxPoint x="-570" y="335" as="sourcePoint" />
            <mxPoint x="-340" y="260" as="targetPoint" />
            <Array as="points">
              <mxPoint x="-610" y="335" />
            </Array>
          </mxGeometry>
        </mxCell>
        <mxCell id="DfmPbPp52cDktXiG-qpe-27" value="Data from File passed back to Model to set Model&#39;s ArrayList&amp;lt;String&amp;gt; courseInfo (populates internal lists&lt;br&gt;from the file)" style="text;html=1;strokeColor=none;fillColor=none;align=center;verticalAlign=middle;whiteSpace=wrap;rounded=0;" vertex="1" parent="KrGE8ehnG4ziwq_qoSwl-1">
          <mxGeometry x="-320" y="360" width="200" height="20" as="geometry" />
        </mxCell>
        <mxCell id="DfmPbPp52cDktXiG-qpe-29" value="" style="triangle;whiteSpace=wrap;html=1;direction=west;" vertex="1" parent="KrGE8ehnG4ziwq_qoSwl-1">
          <mxGeometry x="-335" y="330" width="10" height="20" as="geometry" />
        </mxCell>
        <mxCell id="DfmPbPp52cDktXiG-qpe-30" value="&lt;font style=&quot;font-size: 10px&quot;&gt;Data from&amp;nbsp;&lt;br&gt;Model accessed by&lt;br&gt;Controller to make&amp;nbsp;&lt;br&gt;String from courseInfo&lt;/font&gt;" style="text;html=1;align=center;verticalAlign=middle;resizable=0;points=[];autosize=1;strokeColor=none;" vertex="1" parent="KrGE8ehnG4ziwq_qoSwl-1">
          <mxGeometry x="-441" y="340" width="110" height="60" as="geometry" />
        </mxCell>
        <mxCell id="DfmPbPp52cDktXiG-qpe-33" value="" style="triangle;whiteSpace=wrap;html=1;direction=west;" vertex="1" parent="KrGE8ehnG4ziwq_qoSwl-1">
          <mxGeometry x="-445" y="320" width="10" height="20" as="geometry" />
        </mxCell>
        <mxCell id="DfmPbPp52cDktXiG-qpe-36" value="Components on &lt;br&gt;View&amp;nbsp;updated with &lt;br&gt;new data from this&lt;br&gt;String" style="text;html=1;align=center;verticalAlign=middle;resizable=0;points=[];autosize=1;strokeColor=none;" vertex="1" parent="KrGE8ehnG4ziwq_qoSwl-1">
          <mxGeometry x="-561" y="340" width="120" height="60" as="geometry" />
        </mxCell>
        <mxCell id="DfmPbPp52cDktXiG-qpe-37" value="" style="triangle;whiteSpace=wrap;html=1;direction=west;" vertex="1" parent="KrGE8ehnG4ziwq_qoSwl-1">
          <mxGeometry x="-562" y="325" width="10" height="20" as="geometry" />
        </mxCell>
        <mxCell id="DfmPbPp52cDktXiG-qpe-38" value="" style="endArrow=none;dashed=1;html=1;dashPattern=1 3;strokeWidth=2;exitX=0.8;exitY=1.071;exitDx=0;exitDy=0;exitPerimeter=0;" edge="1" parent="KrGE8ehnG4ziwq_qoSwl-1" source="DfmPbPp52cDktXiG-qpe-3" target="DfmPbPp52cDktXiG-qpe-37">
          <mxGeometry width="50" height="50" relative="1" as="geometry">
            <mxPoint x="-97" y="336.03499999999997" as="sourcePoint" />
            <mxPoint x="-677.5" y="336.03499999999997" as="targetPoint" />
          </mxGeometry>
        </mxCell>
        <mxCell id="DfmPbPp52cDktXiG-qpe-39" value="Notify user of&amp;nbsp;&lt;br&gt;completion by&amp;nbsp;&lt;br&gt;opening&lt;br&gt;Administrator view" style="text;html=1;align=center;verticalAlign=middle;resizable=0;points=[];autosize=1;strokeColor=none;" vertex="1" parent="KrGE8ehnG4ziwq_qoSwl-1">
          <mxGeometry x="-677" y="340" width="110" height="60" as="geometry" />
        </mxCell>
        <mxCell id="DfmPbPp52cDktXiG-qpe-40" value="" style="triangle;whiteSpace=wrap;html=1;direction=west;" vertex="1" parent="KrGE8ehnG4ziwq_qoSwl-1">
          <mxGeometry x="-687" y="330" width="10" height="20" as="geometry" />
        </mxCell>
        <mxCell id="bv9gMsjzRFnDFHR8Jd7G-0" value="A1, A2, A4 are all very similar - they all could be included in this sequence&amp;nbsp;" style="text;html=1;align=center;verticalAlign=middle;resizable=0;points=[];autosize=1;strokeColor=none;" vertex="1" parent="KrGE8ehnG4ziwq_qoSwl-1">
          <mxGeometry x="-630" y="10" width="410" height="20" as="geometry" />
        </mxCell>
      </root>
    </mxGraphModel>
  </diagram>
  <diagram id="Ikqx6vzzyOt0PT7aZKFW" name="A3 MVC">
    <mxGraphModel dx="1109" dy="1828" grid="1" gridSize="10" guides="1" tooltips="1" connect="1" arrows="1" fold="1" page="1" pageScale="1" pageWidth="827" pageHeight="1169" math="0" shadow="0">
      <root>
        <mxCell id="Hvc21hJQThqAbU9jhdap-0" />
        <mxCell id="Hvc21hJQThqAbU9jhdap-1" parent="Hvc21hJQThqAbU9jhdap-0" />
        <mxCell id="sz46D97Wv_IPsjeTUwvp-21" value="A3: Write Data to File" style="text;whiteSpace=wrap;html=1;" vertex="1" parent="Hvc21hJQThqAbU9jhdap-1">
          <mxGeometry x="70" y="-950" width="140" height="30" as="geometry" />
        </mxCell>
        <mxCell id="sz46D97Wv_IPsjeTUwvp-22" value="dispatch" style="html=1;verticalAlign=bottom;startArrow=oval;startFill=1;endArrow=block;startSize=8;entryX=-0.3;entryY=0.049;entryDx=0;entryDy=0;entryPerimeter=0;" edge="1" parent="Hvc21hJQThqAbU9jhdap-1" target="sz46D97Wv_IPsjeTUwvp-24">
          <mxGeometry width="60" relative="1" as="geometry">
            <mxPoint x="140" y="-823" as="sourcePoint" />
            <mxPoint x="200" y="-843" as="targetPoint" />
            <Array as="points">
              <mxPoint x="160" y="-823" />
            </Array>
          </mxGeometry>
        </mxCell>
        <mxCell id="sz46D97Wv_IPsjeTUwvp-23" value="" style="shape=umlLifeline;participant=umlActor;perimeter=lifelinePerimeter;whiteSpace=wrap;html=1;container=1;collapsible=0;recursiveResize=0;verticalAlign=top;spacingTop=36;outlineConnect=0;" vertex="1" parent="Hvc21hJQThqAbU9jhdap-1">
          <mxGeometry x="220" y="-923" width="20" height="320" as="geometry" />
        </mxCell>
        <mxCell id="sz46D97Wv_IPsjeTUwvp-24" value="" style="html=1;points=[];perimeter=orthogonalPerimeter;" vertex="1" parent="sz46D97Wv_IPsjeTUwvp-23">
          <mxGeometry x="5" y="90" width="10" height="220" as="geometry" />
        </mxCell>
        <mxCell id="sz46D97Wv_IPsjeTUwvp-25" value="&lt;span style=&quot;color: rgb(23 , 43 , 77) ; font-size: 14px ; font-style: normal ; font-weight: 400 ; letter-spacing: normal ; text-align: left ; text-indent: 0px ; text-transform: none ; word-spacing: 0px ; background-color: rgb(244 , 245 , 247) ; display: inline ; float: none&quot;&gt;Administrator&lt;/span&gt;" style="text;whiteSpace=wrap;html=1;" vertex="1" parent="Hvc21hJQThqAbU9jhdap-1">
          <mxGeometry x="170" y="-873" width="110" height="30" as="geometry" />
        </mxCell>
        <mxCell id="sz46D97Wv_IPsjeTUwvp-26" value="user input&lt;br&gt;(button click)" style="html=1;verticalAlign=bottom;endArrow=block;entryX=0.5;entryY=0;entryDx=0;entryDy=0;entryPerimeter=0;" edge="1" parent="Hvc21hJQThqAbU9jhdap-1" target="sz46D97Wv_IPsjeTUwvp-38">
          <mxGeometry width="80" relative="1" as="geometry">
            <mxPoint x="230" y="-803" as="sourcePoint" />
            <mxPoint x="350" y="-803" as="targetPoint" />
          </mxGeometry>
        </mxCell>
        <mxCell id="sz46D97Wv_IPsjeTUwvp-35" value=":FileIO" style="shape=umlLifeline;perimeter=lifelinePerimeter;whiteSpace=wrap;html=1;container=1;collapsible=0;recursiveResize=0;outlineConnect=0;" vertex="1" parent="Hvc21hJQThqAbU9jhdap-1">
          <mxGeometry x="750" y="-923" width="100" height="320" as="geometry" />
        </mxCell>
        <mxCell id="sz46D97Wv_IPsjeTUwvp-36" value="" style="html=1;points=[];perimeter=orthogonalPerimeter;" vertex="1" parent="sz46D97Wv_IPsjeTUwvp-35">
          <mxGeometry x="45" y="185" width="10" height="115" as="geometry" />
        </mxCell>
        <mxCell id="sz46D97Wv_IPsjeTUwvp-37" value=":View" style="shape=umlLifeline;perimeter=lifelinePerimeter;whiteSpace=wrap;html=1;container=1;collapsible=0;recursiveResize=0;outlineConnect=0;" vertex="1" parent="Hvc21hJQThqAbU9jhdap-1">
          <mxGeometry x="310" y="-923" width="100" height="320" as="geometry" />
        </mxCell>
        <mxCell id="sz46D97Wv_IPsjeTUwvp-38" value="" style="html=1;points=[];perimeter=orthogonalPerimeter;" vertex="1" parent="sz46D97Wv_IPsjeTUwvp-37">
          <mxGeometry x="45" y="120" width="10" height="190" as="geometry" />
        </mxCell>
        <mxCell id="sz46D97Wv_IPsjeTUwvp-41" value="" style="html=1;verticalAlign=bottom;endArrow=open;dashed=1;endSize=8;entryX=0.835;entryY=1.019;entryDx=0;entryDy=0;entryPerimeter=0;" edge="1" parent="Hvc21hJQThqAbU9jhdap-1" target="q2kz_EaXWlwbVMFiNz0A-1">
          <mxGeometry relative="1" as="geometry">
            <mxPoint x="800" y="-623" as="sourcePoint" />
            <mxPoint x="920" y="-623" as="targetPoint" />
          </mxGeometry>
        </mxCell>
        <mxCell id="q2kz_EaXWlwbVMFiNz0A-0" value="Controller" style="shape=umlLifeline;perimeter=lifelinePerimeter;whiteSpace=wrap;html=1;container=1;collapsible=0;recursiveResize=0;outlineConnect=0;" vertex="1" parent="Hvc21hJQThqAbU9jhdap-1">
          <mxGeometry x="420" y="-923" width="100" height="340" as="geometry" />
        </mxCell>
        <mxCell id="q2kz_EaXWlwbVMFiNz0A-1" value="" style="html=1;points=[];perimeter=orthogonalPerimeter;" vertex="1" parent="q2kz_EaXWlwbVMFiNz0A-0">
          <mxGeometry x="45" y="130" width="10" height="170" as="geometry" />
        </mxCell>
        <mxCell id="q2kz_EaXWlwbVMFiNz0A-2" value="handle event" style="html=1;verticalAlign=bottom;endArrow=block;" edge="1" parent="Hvc21hJQThqAbU9jhdap-1">
          <mxGeometry x="-0.0769" y="10" width="80" relative="1" as="geometry">
            <mxPoint x="360" y="-780" as="sourcePoint" />
            <mxPoint x="460" y="-780" as="targetPoint" />
            <mxPoint as="offset" />
          </mxGeometry>
        </mxCell>
        <mxCell id="q2kz_EaXWlwbVMFiNz0A-3" value="Model" style="shape=umlLifeline;perimeter=lifelinePerimeter;whiteSpace=wrap;html=1;container=1;collapsible=0;recursiveResize=0;outlineConnect=0;" vertex="1" parent="Hvc21hJQThqAbU9jhdap-1">
          <mxGeometry x="530" y="-923" width="100" height="340" as="geometry" />
        </mxCell>
        <mxCell id="q2kz_EaXWlwbVMFiNz0A-4" value="" style="html=1;points=[];perimeter=orthogonalPerimeter;" vertex="1" parent="q2kz_EaXWlwbVMFiNz0A-3">
          <mxGeometry x="45" y="150" width="10" height="150" as="geometry" />
        </mxCell>
        <mxCell id="onqOMBiCeLGR00vkc5wL-1" value="&lt;font style=&quot;font-size: 9px&quot;&gt;Model calls upon&lt;br&gt;Search Engine&#39;s&amp;nbsp;&lt;br&gt;.getCourseList()&lt;br&gt;and&lt;br&gt;getTeacherList()&lt;/font&gt;" style="text;html=1;align=center;verticalAlign=middle;resizable=0;points=[];autosize=1;strokeColor=none;" vertex="1" parent="Hvc21hJQThqAbU9jhdap-1">
          <mxGeometry x="480" y="-860" width="80" height="80" as="geometry" />
        </mxCell>
        <mxCell id="onqOMBiCeLGR00vkc5wL-2" value="" style="html=1;verticalAlign=bottom;endArrow=block;" edge="1" parent="Hvc21hJQThqAbU9jhdap-1">
          <mxGeometry x="-0.0769" y="10" width="80" relative="1" as="geometry">
            <mxPoint x="480" y="-770" as="sourcePoint" />
            <mxPoint x="580" y="-770" as="targetPoint" />
            <mxPoint as="offset" />
          </mxGeometry>
        </mxCell>
        <mxCell id="onqOMBiCeLGR00vkc5wL-3" value="Search Engine" style="shape=umlLifeline;perimeter=lifelinePerimeter;whiteSpace=wrap;html=1;container=1;collapsible=0;recursiveResize=0;outlineConnect=0;" vertex="1" parent="Hvc21hJQThqAbU9jhdap-1">
          <mxGeometry x="640" y="-923" width="100" height="340" as="geometry" />
        </mxCell>
        <mxCell id="onqOMBiCeLGR00vkc5wL-4" value="" style="html=1;points=[];perimeter=orthogonalPerimeter;" vertex="1" parent="onqOMBiCeLGR00vkc5wL-3">
          <mxGeometry x="45" y="160" width="10" height="140" as="geometry" />
        </mxCell>
        <mxCell id="onqOMBiCeLGR00vkc5wL-5" value="" style="html=1;verticalAlign=bottom;endArrow=block;" edge="1" parent="Hvc21hJQThqAbU9jhdap-1">
          <mxGeometry x="-0.0769" y="10" width="80" relative="1" as="geometry">
            <mxPoint x="590" y="-763.5" as="sourcePoint" />
            <mxPoint x="690" y="-763.5" as="targetPoint" />
            <mxPoint as="offset" />
          </mxGeometry>
        </mxCell>
        <mxCell id="onqOMBiCeLGR00vkc5wL-6" value="Data from&amp;nbsp;&lt;br&gt;SearchEngine&lt;br&gt;passed to FileIO" style="text;html=1;align=center;verticalAlign=middle;resizable=0;points=[];autosize=1;strokeColor=none;" vertex="1" parent="Hvc21hJQThqAbU9jhdap-1">
          <mxGeometry x="580" y="-830" width="100" height="50" as="geometry" />
        </mxCell>
        <mxCell id="onqOMBiCeLGR00vkc5wL-7" value="FileIO&#39;s .saveFile()&lt;br&gt;called&amp;nbsp;" style="text;html=1;align=center;verticalAlign=middle;resizable=0;points=[];autosize=1;strokeColor=none;" vertex="1" parent="Hvc21hJQThqAbU9jhdap-1">
          <mxGeometry x="690" y="-768" width="120" height="30" as="geometry" />
        </mxCell>
        <mxCell id="onqOMBiCeLGR00vkc5wL-8" value="" style="html=1;verticalAlign=bottom;endArrow=block;" edge="1" parent="Hvc21hJQThqAbU9jhdap-1">
          <mxGeometry x="-0.0769" y="10" width="80" relative="1" as="geometry">
            <mxPoint x="700" y="-738" as="sourcePoint" />
            <mxPoint x="800" y="-738" as="targetPoint" />
            <mxPoint as="offset" />
          </mxGeometry>
        </mxCell>
        <mxCell id="onqOMBiCeLGR00vkc5wL-9" value="" style="html=1;verticalAlign=bottom;endArrow=open;dashed=1;endSize=8;" edge="1" parent="Hvc21hJQThqAbU9jhdap-1">
          <mxGeometry relative="1" as="geometry">
            <mxPoint x="470" y="-611" as="sourcePoint" />
            <mxPoint x="350.00352941176465" y="-610.59" as="targetPoint" />
          </mxGeometry>
        </mxCell>
        <mxCell id="onqOMBiCeLGR00vkc5wL-10" value="Controller closes program" style="text;html=1;align=center;verticalAlign=middle;resizable=0;points=[];autosize=1;strokeColor=none;" vertex="1" parent="Hvc21hJQThqAbU9jhdap-1">
          <mxGeometry x="540" y="-620" width="150" height="20" as="geometry" />
        </mxCell>
        <mxCell id="onqOMBiCeLGR00vkc5wL-11" value="User notified&lt;br&gt;of changes&lt;br&gt;as GUI is closed" style="text;html=1;align=center;verticalAlign=middle;resizable=0;points=[];autosize=1;strokeColor=none;" vertex="1" parent="Hvc21hJQThqAbU9jhdap-1">
          <mxGeometry x="360" y="-615" width="100" height="50" as="geometry" />
        </mxCell>
      </root>
    </mxGraphModel>
  </diagram>
  <diagram id="om_zSJqiwvuPd-b_7Vcq" name="B1 MVC">
    <mxGraphModel dx="1109" dy="659" grid="1" gridSize="10" guides="1" tooltips="1" connect="1" arrows="1" fold="1" page="1" pageScale="1" pageWidth="827" pageHeight="1169" math="0" shadow="0">
      <root>
        <mxCell id="nkSfgoSuit1Ir-Zu2J7h-0" />
        <mxCell id="nkSfgoSuit1Ir-Zu2J7h-1" parent="nkSfgoSuit1Ir-Zu2J7h-0" />
        <mxCell id="_Nq831isPchQCGtSq0cF-0" value="B1: Find Suitable Staff" style="text;whiteSpace=wrap;html=1;" vertex="1" parent="nkSfgoSuit1Ir-Zu2J7h-1">
          <mxGeometry y="10" width="140" height="30" as="geometry" />
        </mxCell>
        <mxCell id="_Nq831isPchQCGtSq0cF-1" value="dispatch" style="html=1;verticalAlign=bottom;startArrow=oval;startFill=1;endArrow=block;startSize=8;" edge="1" parent="nkSfgoSuit1Ir-Zu2J7h-1" target="_Nq831isPchQCGtSq0cF-2">
          <mxGeometry width="60" relative="1" as="geometry">
            <mxPoint x="70" y="160" as="sourcePoint" />
            <mxPoint x="130" y="160" as="targetPoint" />
          </mxGeometry>
        </mxCell>
        <mxCell id="_Nq831isPchQCGtSq0cF-2" value="" style="shape=umlLifeline;participant=umlActor;perimeter=lifelinePerimeter;whiteSpace=wrap;html=1;container=1;collapsible=0;recursiveResize=0;verticalAlign=top;spacingTop=36;outlineConnect=0;" vertex="1" parent="nkSfgoSuit1Ir-Zu2J7h-1">
          <mxGeometry x="150" y="80" width="20" height="390" as="geometry" />
        </mxCell>
        <mxCell id="_Nq831isPchQCGtSq0cF-3" value="" style="html=1;points=[];perimeter=orthogonalPerimeter;" vertex="1" parent="_Nq831isPchQCGtSq0cF-2">
          <mxGeometry x="5" y="80" width="10" height="290" as="geometry" />
        </mxCell>
        <mxCell id="_Nq831isPchQCGtSq0cF-4" value="&lt;span style=&quot;color: rgb(23, 43, 77); font-size: 14px; font-style: normal; font-weight: 400; letter-spacing: normal; text-indent: 0px; text-transform: none; word-spacing: 0px; background-color: rgb(244, 245, 247); display: inline; float: none;&quot;&gt;Administrator&lt;/span&gt;" style="text;whiteSpace=wrap;html=1;" vertex="1" parent="nkSfgoSuit1Ir-Zu2J7h-1">
          <mxGeometry x="105" y="120" width="110" height="30" as="geometry" />
        </mxCell>
        <mxCell id="_Nq831isPchQCGtSq0cF-5" value="user input" style="html=1;verticalAlign=bottom;endArrow=block;" edge="1" parent="nkSfgoSuit1Ir-Zu2J7h-1" target="_Nq831isPchQCGtSq0cF-19">
          <mxGeometry width="80" relative="1" as="geometry">
            <mxPoint x="159.99999999999977" y="170" as="sourcePoint" />
            <mxPoint x="230" y="170" as="targetPoint" />
          </mxGeometry>
        </mxCell>
        <mxCell id="_Nq831isPchQCGtSq0cF-18" value=":View" style="shape=umlLifeline;perimeter=lifelinePerimeter;whiteSpace=wrap;html=1;container=1;collapsible=0;recursiveResize=0;outlineConnect=0;" vertex="1" parent="nkSfgoSuit1Ir-Zu2J7h-1">
          <mxGeometry x="200" y="80" width="100" height="390" as="geometry" />
        </mxCell>
        <mxCell id="_Nq831isPchQCGtSq0cF-19" value="" style="html=1;points=[];perimeter=orthogonalPerimeter;" vertex="1" parent="_Nq831isPchQCGtSq0cF-18">
          <mxGeometry x="45" y="90" width="10" height="270" as="geometry" />
        </mxCell>
        <mxCell id="_Nq831isPchQCGtSq0cF-31" value="Controller" style="shape=umlLifeline;perimeter=lifelinePerimeter;whiteSpace=wrap;html=1;container=1;collapsible=0;recursiveResize=0;outlineConnect=0;" vertex="1" parent="nkSfgoSuit1Ir-Zu2J7h-1">
          <mxGeometry x="310" y="80" width="100" height="390" as="geometry" />
        </mxCell>
        <mxCell id="_Nq831isPchQCGtSq0cF-32" value="" style="html=1;points=[];perimeter=orthogonalPerimeter;" vertex="1" parent="_Nq831isPchQCGtSq0cF-31">
          <mxGeometry x="45" y="100" width="10" height="260" as="geometry" />
        </mxCell>
        <mxCell id="_Nq831isPchQCGtSq0cF-33" value="handle event" style="text;html=1;align=center;verticalAlign=middle;resizable=0;points=[];autosize=1;strokeColor=none;" vertex="1" parent="nkSfgoSuit1Ir-Zu2J7h-1">
          <mxGeometry x="260" y="160" width="80" height="20" as="geometry" />
        </mxCell>
        <mxCell id="_Nq831isPchQCGtSq0cF-35" value="" style="endArrow=classic;html=1;entryX=-0.282;entryY=0.098;entryDx=0;entryDy=0;entryPerimeter=0;" edge="1" parent="nkSfgoSuit1Ir-Zu2J7h-1" source="_Nq831isPchQCGtSq0cF-19" target="_Nq831isPchQCGtSq0cF-32">
          <mxGeometry width="50" height="50" relative="1" as="geometry">
            <mxPoint x="250" y="200" as="sourcePoint" />
            <mxPoint x="320" y="130" as="targetPoint" />
          </mxGeometry>
        </mxCell>
        <mxCell id="_Nq831isPchQCGtSq0cF-36" value="Model" style="shape=umlLifeline;perimeter=lifelinePerimeter;whiteSpace=wrap;html=1;container=1;collapsible=0;recursiveResize=0;outlineConnect=0;" vertex="1" parent="nkSfgoSuit1Ir-Zu2J7h-1">
          <mxGeometry x="420" y="80" width="100" height="390" as="geometry" />
        </mxCell>
        <mxCell id="_Nq831isPchQCGtSq0cF-37" value="" style="html=1;points=[];perimeter=orthogonalPerimeter;" vertex="1" parent="_Nq831isPchQCGtSq0cF-36">
          <mxGeometry x="45" y="110" width="10" height="250" as="geometry" />
        </mxCell>
        <mxCell id="_Nq831isPchQCGtSq0cF-38" value="Model calls upon&lt;br&gt;Search Engine&#39;s&lt;br&gt;.findTeacher()" style="text;html=1;align=center;verticalAlign=middle;resizable=0;points=[];autosize=1;strokeColor=none;" vertex="1" parent="nkSfgoSuit1Ir-Zu2J7h-1">
          <mxGeometry x="359" y="145" width="110" height="50" as="geometry" />
        </mxCell>
        <mxCell id="_Nq831isPchQCGtSq0cF-39" value="" style="endArrow=classic;html=1;entryX=-0.282;entryY=0.098;entryDx=0;entryDy=0;entryPerimeter=0;" edge="1" parent="nkSfgoSuit1Ir-Zu2J7h-1">
          <mxGeometry width="50" height="50" relative="1" as="geometry">
            <mxPoint x="366.81999999999977" y="200" as="sourcePoint" />
            <mxPoint x="469.00000000000006" y="199.80000000000007" as="targetPoint" />
          </mxGeometry>
        </mxCell>
        <mxCell id="_Nq831isPchQCGtSq0cF-40" value="Search Engine" style="shape=umlLifeline;perimeter=lifelinePerimeter;whiteSpace=wrap;html=1;container=1;collapsible=0;recursiveResize=0;outlineConnect=0;" vertex="1" parent="nkSfgoSuit1Ir-Zu2J7h-1">
          <mxGeometry x="530" y="80" width="100" height="390" as="geometry" />
        </mxCell>
        <mxCell id="_Nq831isPchQCGtSq0cF-41" value="" style="html=1;points=[];perimeter=orthogonalPerimeter;" vertex="1" parent="_Nq831isPchQCGtSq0cF-40">
          <mxGeometry x="45" y="130" width="10" height="230" as="geometry" />
        </mxCell>
        <mxCell id="_Nq831isPchQCGtSq0cF-42" value="&lt;font style=&quot;font-size: 9px&quot;&gt;ArrayList of suitable&lt;br&gt;Teachers is produced&lt;/font&gt;" style="text;html=1;align=center;verticalAlign=middle;resizable=0;points=[];autosize=1;strokeColor=none;" vertex="1" parent="nkSfgoSuit1Ir-Zu2J7h-1">
          <mxGeometry x="470" y="150" width="100" height="40" as="geometry" />
        </mxCell>
        <mxCell id="_Nq831isPchQCGtSq0cF-43" value="" style="endArrow=classic;html=1;entryX=-0.282;entryY=0.098;entryDx=0;entryDy=0;entryPerimeter=0;" edge="1" parent="nkSfgoSuit1Ir-Zu2J7h-1">
          <mxGeometry width="50" height="50" relative="1" as="geometry">
            <mxPoint x="479.9999999999997" y="210" as="sourcePoint" />
            <mxPoint x="582.1800000000001" y="209.80000000000007" as="targetPoint" />
          </mxGeometry>
        </mxCell>
        <mxCell id="_Nq831isPchQCGtSq0cF-44" value="ArrayList returned&amp;nbsp;&lt;br&gt;to Model&lt;br&gt;" style="text;html=1;align=center;verticalAlign=middle;resizable=0;points=[];autosize=1;strokeColor=none;" vertex="1" parent="nkSfgoSuit1Ir-Zu2J7h-1">
          <mxGeometry x="470" y="410" width="110" height="30" as="geometry" />
        </mxCell>
        <mxCell id="_Nq831isPchQCGtSq0cF-45" value="Data from Model&lt;br&gt;accessed by&amp;nbsp;&lt;br&gt;Controller" style="text;html=1;align=center;verticalAlign=middle;resizable=0;points=[];autosize=1;strokeColor=none;" vertex="1" parent="nkSfgoSuit1Ir-Zu2J7h-1">
          <mxGeometry x="364" y="390" width="100" height="50" as="geometry" />
        </mxCell>
        <mxCell id="_Nq831isPchQCGtSq0cF-46" value="Components on View&lt;br&gt;updated with&amp;nbsp;&lt;br&gt;suitable staff&lt;br&gt;from the&lt;br&gt;ArrayList produced" style="text;html=1;align=center;verticalAlign=middle;resizable=0;points=[];autosize=1;strokeColor=none;" vertex="1" parent="nkSfgoSuit1Ir-Zu2J7h-1">
          <mxGeometry x="240" y="380" width="130" height="80" as="geometry" />
        </mxCell>
        <mxCell id="_Nq831isPchQCGtSq0cF-47" value="Notify user&lt;br&gt;of suitable&amp;nbsp;&lt;br&gt;staff by updating&lt;br&gt;GUI" style="text;html=1;align=center;verticalAlign=middle;resizable=0;points=[];autosize=1;strokeColor=none;" vertex="1" parent="nkSfgoSuit1Ir-Zu2J7h-1">
          <mxGeometry x="160" y="390" width="100" height="60" as="geometry" />
        </mxCell>
        <mxCell id="5pQ_kgXCnc5Gd82ijzvP-0" value="" style="html=1;verticalAlign=bottom;endArrow=open;dashed=1;endSize=8;" edge="1" parent="nkSfgoSuit1Ir-Zu2J7h-1">
          <mxGeometry relative="1" as="geometry">
            <mxPoint x="576.65" y="466.77" as="sourcePoint" />
            <mxPoint x="160" y="470" as="targetPoint" />
          </mxGeometry>
        </mxCell>
      </root>
    </mxGraphModel>
  </diagram>
</mxfile>
